<svg id="Layer_1" data-name="Layer 1" xmlns="http://www.w3.org/2000/svg" viewBox="0 0 1074.26 317.28"><defs><style>.cls-1,.cls-2{font-size:26.81px;font-family:MyriadPro-Regular, Myriad Pro;}.cls-1,.cls-10,.cls-2,.cls-3,.cls-7{fill:#fff;}.cls-1{letter-spacing:0.08em;}.cls-2{letter-spacing:0.08em;}.cls-3,.cls-4,.cls-5{stroke:#000;stroke-miterlimit:10;}.cls-4{fill:#2e368f;}.cls-4,.cls-5{stroke-width:0.5px;}.cls-5{fill:#00a64f;}.cls-6{fill:#ec008c;}.cls-10,.cls-7{font-size:35px;font-family:FranklinGothic-Heavy, Franklin Gothic Heavy;font-weight:800;}.cls-7{letter-spacing:0.08em;}.cls-8{letter-spacing:0.08em;}.cls-9{font-size:36px;letter-spacing:0.08em;}.cls-10,.cls-13{letter-spacing:0.08em;}.cls-11{letter-spacing:0.09em;}.cls-12{letter-spacing:0.06em;}</style></defs><title>bar_graph</title><text class="cls-1" transform="translate(313.89 310.58)">0.0</text><text class="cls-1" transform="translate(434.04 310.58)">0.5</text><text class="cls-1" transform="translate(554.18 310.58)">1.0</text><text class="cls-2" transform="translate(674.33 310.58)">1.5</text><text class="cls-2" transform="translate(794.48 310.58)">2.0</text><text class="cls-2" transform="translate(914.62 310.58)">2.5</text><text class="cls-2" transform="translate(1034.77 310.58)">3.0</text><line class="cls-3" x1="333.64" y1="286" x2="1054.52" y2="286"/><line class="cls-3" x1="333.64" y1="286" x2="333.64" y2="278.85"/><line class="cls-3" x1="453.78" y1="286" x2="453.78" y2="278.85"/><line class="cls-3" x1="573.93" y1="286" x2="573.93" y2="278.85"/><line class="cls-3" x1="694.08" y1="286" x2="694.08" y2="278.85"/><line class="cls-3" x1="814.22" y1="286" x2="814.22" y2="278.85"/><line class="cls-3" x1="934.37" y1="286" x2="934.37" y2="278.85"/><line class="cls-3" x1="1054.52" y1="286" x2="1054.52" y2="278.85"/><line class="cls-3" x1="333.64" y1="286" x2="333.64"/><line class="cls-3" x1="333.64" y1="238.33" x2="351.66" y2="238.33"/><line class="cls-3" x1="333.64" y1="143" x2="351.66" y2="143"/><line class="cls-3" x1="333.64" y1="47.67" x2="351.66" y2="47.67"/><rect class="cls-4" x="333.64" y="13.35" width="720.88" height="68.64"/><rect class="cls-5" x="333.64" y="108.68" width="528.65" height="68.64"/><rect class="cls-6" x="333.64" y="204.01" width="456.56" height="68.64"/><text class="cls-7" transform="translate(37.78 248.39)">A<tspan class="cls-8" x="24.95" y="0">t San Quenti</tspan><tspan class="cls-9" x="260.57" y="0">n</tspan></text><text class="cls-10" transform="translate(76.58 132.9)">With His Hot <tspan x="-48.26" y="42">and Blue Gui</tspan><tspan class="cls-11" x="193.12" y="42">t</tspan><tspan class="cls-8" x="209.2" y="42">ar</tspan></text><text class="cls-7" transform="translate(0 57.72)">A<tspan class="cls-8" x="24.95" y="0">t </tspan><tspan class="cls-12" x="52.3" y="0">F</tspan><tspan class="cls-13" x="73.48" y="0">olsom Prison</tspan></text></svg>