<?xml version="1.0" encoding="utf-8"?>
<!-- Generator: Adobe Illustrator 23.1.0, SVG Export Plug-In . SVG Version: 6.00 Build 0)  -->
<svg version="1.1" id="Layer_1" xmlns="http://www.w3.org/2000/svg" xmlns:xlink="http://www.w3.org/1999/xlink" x="0px" y="0px"
	 viewBox="0 0 612 792" style="enable-background:new 0 0 612 792;" xml:space="preserve">
<style type="text/css">
	.st0{fill:#4D4F4F;}
	.st1{fill:#F7F6F6;}
	.st2{fill:#050404;}
	.st3{fill:#070707;}
	.st4{fill:#151515;}
	.st5{fill:#EBEBEB;}
	.st6{fill:#040404;}
	.st7{fill:#FFFFFF;}
	.st8{fill:#FEFEFE;}
	.st9{fill:#FCFCFC;}
	.st10{fill:#F8F8F8;}
	.st11{fill:#F9F9F9;}
	.st12{fill:#D1D0D0;}
	.st13{fill:#EBEAEA;}
	.st14{fill:#E7E6E5;}
	.st15{fill:#191919;}
	.st16{fill:#E5E4E4;}
	.st17{fill:#E5E5E5;}
	.st18{fill:#E3E2E2;}
	.st19{fill:#E4E3E3;}
	.st20{fill:#2C2D2D;}
	.st21{fill:#232424;}
	.st22{fill:#242424;}
	.st23{fill:#D2D2D2;}
	.st24{fill:#D1CFCF;}
	.st25{fill:#C7C6C6;}
	.st26{fill:#4C4C4C;}
	.st27{fill:#C8C7C7;}
	.st28{fill:#484848;}
	.st29{fill:#C5C3C3;}
	.st30{fill:#A3A2A2;}
	.st31{fill:#BAB9B9;}
	.st32{fill:#EBEBEA;}
	.st33{fill:#282828;}
	.st34{fill:#B9B9B9;}
	.st35{fill:#D1D0CF;}
	.st36{fill:#050504;}
	.st37{fill:#080707;}
	.st38{fill:#F6F6F6;}
	.st39{fill:#2D2C2C;}
	.st40{fill:#C2C1C1;}
	.st41{fill:#C4C4C4;}
	.st42{fill:#AFAFAF;}
	.st43{fill:#838383;}
	.st44{fill:#9B9B9B;}
	.st45{fill:#919191;}
	.st46{fill:#C0BFBF;}
	.st47{fill:#E8E7E7;}
	.st48{fill:#F0F0EF;}
	.st49{fill:#E6E5E5;}
	.st50{fill:#F8F8F9;}
	.st51{fill:#DCDBDB;}
	.st52{fill:#FEFFFF;}
	.st53{fill:#D9D8D8;}
	.st54{fill:#BCBABA;}
	.st55{fill:#E2E2E2;}
	.st56{fill:#FDFDFD;}
	.st57{fill:#F7F7F6;}
	.st58{fill:#F3F2F2;}
	.st59{fill:#1E1F1F;}
	.st60{fill:#E3E2E1;}
	.st61{fill:#F2F1F1;}
	.st62{fill:#2F2F2F;}
	.st63{fill:#E9E8E8;}
	.st64{fill:#EAEAEA;}
	.st65{fill:#292929;}
	.st66{fill:#D0CFCE;}
	.st67{fill:#C3C2C2;}
	.st68{fill:#E9E9E8;}
	.st69{fill:#C2C0C0;}
	.st70{fill:#FAFAFA;}
	.st71{fill:#CBCACA;}
	.st72{fill:#BFBEBE;}
	.st73{fill:#E1E0E0;}
	.st74{fill:#9F9E9E;}
	.st75{fill:#C1C0C0;}
	.st76{fill:#4D4D4D;}
	.st77{fill:#E2E1E0;}
	.st78{fill:#C7C6C5;}
	.st79{fill:#CECDCC;}
	.st80{fill:#C9C8C8;}
	.st81{fill:#D3D2D2;}
	.st82{fill:#222222;}
	.st83{fill:#4D4E4E;}
	.st84{fill:#C0BEBE;}
	.st85{fill:#1D1D1D;}
	.st86{fill:#B9B8B8;}
	.st87{fill:#ACACAC;}
	.st88{fill:#E0E0DF;}
	.st89{fill:#ECEBEB;}
	.st90{fill:#262727;}
	.st91{fill:#383838;}
	.st92{fill:#0D0E0E;}
	.st93{fill:#252626;}
	.st94{fill:#292A2A;}
	.st95{fill:#535353;}
	.st96{fill:#020202;}
	.st97{fill:#535554;}
	.st98{fill:#363636;}
	.st99{fill:#353636;}
	.st100{fill:#4E4E4E;}
	.st101{fill:#171717;}
	.st102{fill:#313232;}
	.st103{fill:#464646;}
	.st104{fill:#3D3E3E;}
	.st105{fill:#161716;}
	.st106{fill:#3B3B3B;}
	.st107{fill:#272626;}
	.st108{fill:#252324;}
	.st109{fill:#2B2A2A;}
	.st110{fill:#0E0D0D;}
	.st111{fill:#202020;}
	.st112{fill:#3E3E3E;}
	.st113{fill:#070606;}
	.st114{fill:#3C3C3C;}
	.st115{fill:#414242;}
	.st116{fill:#313030;}
	.st117{fill:#6E6D6D;}
	.st118{fill:#2C2C2C;}
	.st119{fill:#161717;}
	.st120{fill:#181919;}
	.st121{fill:#424242;}
	.st122{fill:#FBFBFB;}
	.st123{fill:#979696;}
	.st124{fill:#A9A8A9;}
	.st125{fill:#E2E2E1;}
	.st126{fill:#949494;}
	.st127{fill:#9F9F9F;}
	.st128{fill:#787878;}
</style>
<path class="st0" d="M442.91,397.24c-0.64-0.57-1.28-1.15-1.92-1.72c1.63-0.73,3.19-2.07,5.08-0.57c0.4,0.79-0.02,1.34-0.53,1.88
	C444.74,397.36,443.91,397.85,442.91,397.24z"/>
<path class="st1" d="M449.1,390.47c1.72-0.26,3.43-0.53,5.6-0.86C452.94,393.05,450.76,390.91,449.1,390.47z"/>
<g>
	<path class="st2" d="M289.78,319.24c3.92,5.34,8.1,10.41,12.91,15.02c11.55,11.05,21.33,23.8,33.31,34.54
		c1.32-0.77,0.06-1.63-0.2-2.4c-0.78-2.25,0.53-3.41,2.14-4.44c1.76-1.12,3.28-0.46,4.3,1.03c1.35,1.99,2.75,2.52,4.99,1.35
		c2.88-1.5,5.42-0.5,7.59,1.69c-0.15,0.72-0.59,1.18-1.27,1.42c-1.78,0.06-3.42,0.64-5.03,1.34c-0.88,0.27-1.77,0.37-2.68,0.37
		c-1.13-0.01-2.41,0-3.23-0.7c-3.09-2.63-1.65,0.9-2.27,1.6c-0.92,1.56-2.56,2-4.09,2.62c-0.43,0.18-0.87,0.32-1.31,0.45
		c-1.72,0.44-3.47,1.2-5.19,0.09c-2.56-1.65-1.91,1.01-2.58,1.88c-1.49,1.53-3.46,2.36-5.22,3.51c-0.43,0.19-0.88,0.32-1.34,0.4
		c-2.87,0.46-4.6-1.06-6.06-3.59c0.81,2.24,1.66,4.33-0.71,5.9c-0.53,0.43-1.11,0.78-1.75,1.03c-1.76,0.2-3.39,0.81-4.92,1.69
		c-0.83,0.39-1.69,0.7-2.62,0.73c-0.83-0.05-1.55-0.34-2.1-1c-2.93-3.46-3.45-1.19-3.75,1.59c-0.22,2.04-1.83,2.66-3.39,3.33
		c-0.88,0.36-1.77,0.69-2.75,0.67c-2.3-2.2-4.08-2.55-5.56,1c-0.65,1.56-2.17,2.97-4.3,1.54c-0.02-7.36,2-9.46,9.53-9.83
		c0.67-0.03,1.19-0.03,1.78-0.51c6.28-4.99,6.29-4.98,13.59-3.72c-8.92-6.13-18.4-9.77-27.81-15.81c0.98,9.09,0.37,17.27-1.7,25.3
		c-0.23,1.19-0.4,2.41-1.77,2.91c-2.64-1.17-2.76-3.63-2.44-5.83c0.35-2.49-0.24-4.47-1.66-6.38c-0.23-0.69-0.27-1.39-0.16-2.11
		c0.62-2.61,3.22-4.13,3.56-7.01c0.87-7.24-4.26-14.85-11.38-16.55c-1.49-0.36-2.57,0.25-3.67,1.04c-2.98,2.13-4.4,0.84-4.25-2.31
		c0.25-5.12-2.5-8.08-6.23-11.07c-4.67-3.74-8.04-8.79-11.54-13.65c-1.2-1.67-2.07-4.19-4.68-3.95c-2.61,0.23-3.24,2.6-3.79,4.7
		c-0.8,3.1-2.88,3.78-5.69,3.33c-0.6,0.04-1.21-0.03-1.8,0.07c-1.62,1.46-1.16,2.98-0.18,4.53c0.18,0.43,0.28,0.87,0.34,1.33
		c-0.86,4.09,2.04,7.6,1.81,11.59c-0.25,0.73-0.69,1.24-1.5,1.33c-3.51-2.87-5.17-7.05-7.52-10.74c0.62-1.8-0.69-3.27-0.9-4.94
		c-3.35-11.85-8.67-16.39-20.66-17.3c-2.72-0.21-4.76-1.04-6.17-3.44c-1.27-2.16-3.27-3.75-4.85-5.67
		c-1.12-1.36-1.85-2.81-0.73-4.52c1.02-1.55,2.57-1.42,4.03-1.02c8.19,2.27,15.26,0.03,22.03-4.71c2.45-1.72,3.78-3.9,5.42-6.18
		c4.46-6.23,3.06-14.06,6.16-20.59c0.01-0.48,0.06-0.96,0.1-1.43c-0.03-2.52,0.66-4.92,1.12-7.38c0.78-4.14,1.46-8.69-2.69-11.38
		c-5.26-3.42-10.39-8.52-17.61-4.34c-1.73,1-3.26,1.04-5.17,0.25c-4.86-2-8.25-0.83-10.96,3.62c-3.17,5.22-5.23,11-8.42,16.29
		c-1.94,3.22-1.08,9.05-0.33,13.59c0.93,5.72,1.77,11.54,4.27,16.88c1.17,2.5,0.37,4.86-0.07,7.31c-0.67,3.69-2.42,7.4-0.09,11.12
		c0.27,0.8-0.04,1.39-0.65,1.89c-3.06,2.28-5.72,4.6-2.51,8.77c0.5,0.65-0.23,1.87-0.37,2.84c-0.14,0.46-0.42,0.82-0.83,1.09
		c-3.02-0.08-5.84-0.74-8.3-2.61c-2.6-1.98-5.85-2.03-8.83-2.9c-0.44-0.2-0.81-0.5-1.11-0.88c-0.69-1.2-0.86-2.54-0.67-3.86
		c0.37-2.5-0.45-4.14-2.9-5.03c-3.86-1.41-2.48-3.28-0.18-4.8c4.97-3.29,6.79-7.79,5.97-13.61c-0.33-2.33,0-4.81-3.31-5.16
		c-3.09-0.33-4.11,1.47-4.4,4.11c-0.05,0.49-0.27,0.96-0.48,1.41c-1.7,1.89-2.38,4.19-2.62,6.66c-1.68,7.25-3.7,14.42-4.78,21.8
		c-0.26,1.8-0.61,3.59-1.54,5.21c-1.62,1.7-3.98,0.24-5.74,1.36c-5.96,0.57-8.61,4.05-9.05,9.83c-0.27,3.51-2.36,6.33-3.93,9.43
		c-2.79,5.49-2.73,11.74-0.43,17.7c4.17,4.42,9.35,7.65,13.81,11.75c1.32,1.22,2.85,2.2,3.73,3.84c0.72,1.31,1.06,2.7,0.79,4.2
		c-0.53,1.81-0.66,3.62,0.1,5.41c0.36,1.19,0.81,2.36,0.93,3.61c-4.83,9.61-13.25,14.29-22.54,9.99c-4.88-2.26-8.93-1.68-13.13,0.89
		c-7.95,4.85-12.92,11.83-12.62,21.23c0.42,13.08,0.52,26.23,3.25,39.13c0.41,1.94,0.7,3.95,2.05,5.54
		c1.61,1.52,3.64,0.84,5.49,1.07c1.78,0.23,3.97-0.46,4.83,2.01c-4.48,1.54-9.03,0.75-13.57,0.46c-3.22-5.86-3.42-12.44-4.04-18.8
		c-1.09-11.06-2.71-22.15-1.64-33.3c1.25-12.97,11.58-20.43,21.24-23.89c3.46-1.24,7.02,0.37,9.94,2.25
		c3.97,2.55,8.2,1.72,11.06-0.46c2.92-2.22,5.03-5.68,5.16-10.42c0.15-5.51-2.32-8.47-6.11-11.39c-3.29-2.54-6.26-5.48-9.53-8.04
		c-3.42-2.68-5.22-5.9-4.57-10.34c0.53-3.59,1.09-7.15,0.22-10.84c-0.28-1.2,0.52-3.54,1.47-3.98c5.06-2.33,4.2-7.21,5.05-11.17
		c1.48-6.88,2.1-8.28,9.18-8.52c5.39-0.18,6.29-2.96,6.99-7.24c1.69-10.27,4.27-20.35,7.47-30.27c1.94-5.99,6.93-3.11,10.6-3.55
		c3.06-0.36,3.93,2.15,4.22,4.97c0.76,7.48,0.97,14.85-1.92,22.02c-0.44,1.1-0.2,2.48-0.32,4.49c4.04-3.24,7.98-5.61,10.86-8.91
		c3.68-4.22,5.99-8.64,3.61-15.28c-2.56-7.13-5.03-14.85-2.96-22.89c0.29-1.13-0.29-2.59-0.74-3.8c-2.82-7.61-3.65-16.01-1.17-23.12
		c2.32-6.66,5.52-14.75,13.63-17.25c7.24-2.23,14.67-4.17,22.4-4.09c8.98,0.1,21.58,9.78,25.3,18.03
		c5.7,12.62,5.47,25.79,4.86,39.01c-0.27,5.93-5.52,8.63-9.9,11.52c-1.31,0.87-3.63,0.89-3.04,3.11c0.56,2.12,2.7,1.1,4.22,1.42
		c8.47,1.8,17.22,0.46,25.63,2.35c2.33,0.53,4.33-0.42,6.8,0c12.09,2.09,19.64,10.19,27.38,18.33
		C288.86,317.48,289.57,318.14,289.78,319.24z"/>
	<path class="st3" d="M96.52,477.09c4.45-0.79,9.09,1.01,13.44-1.05c3.5-2.11,7.41-1.41,11.14-1.43
		c18.79-0.14,37.58-0.06,56.36-0.07c3.36,0.03,6.71,0.03,10.07,0.02c2.06,0.01,4.12,0.02,6.18,0.01c1.72,0.01,3.45,0.01,5.17,0
		c3.4-0.11,6.83,0.42,10.17-0.64c1.81-0.32,3.61-0.32,5.4,0.1c7.87,1.14,15.79,0.32,23.68,0.49c6.43,0.14,12.86,0.03,19.28,0.02
		c1.81,0.01,3.62,0.02,5.43,0.01c10.69,0.04,21.39,0.04,32.09-0.02c1.86-0.01,4.04,0.73,5.36-1.43c0.14-4.46-2.04-8.33-3.18-12.44
		c-2.97-10.69-5.99-21.36-9.31-31.95c-1.14-3.64-2.55-5.65-7.02-3.92c-3.12,1.21-6.93-0.13-10.18,1.56
		c-0.78,0.03-1.36-0.33-1.82-0.93c1.4-3.62-2.23-2.79-3.56-4c-0.58-0.57-0.76-1.21-0.37-1.95c7.35-4.51,14.48-8.29,23.55-3.38
		c4.98,2.7,11.11,2.58,16.88,2.59c1.19-0.29,1.97,0.21,2.43,1.29c-1.54,4.3-4.83,3.69-8.12,2.78c-0.73-0.2-1.31-1.37-1.95-1.36
		c-2.62,0.05-5.6-0.28-7.72,0.87c-1.18,0.64,0.92,3.42,1.45,5.26c4.27,14.78,8.71,29.51,13.03,44.28c1.57,5.38,0.97,6.14-4.46,6.15
		c-66.24,0.01-132.49,0.02-198.73-0.01C99.64,477.94,97.85,478.61,96.52,477.09z"/>
	<path class="st4" d="M307.72,419.98c-0.71-0.3-1.42-0.6-2.13-0.9c-4.34-2.22-1.71-3.55,0.62-4.93c1.87-0.58,3.7-1.42,5.46,0.47
		c2.19,2.36,3.48,2.24,3.03-1.38c-0.09-0.7,0.09-1.29,0.55-1.81c1.43-1.18,3.22-1.8,4.64-2.99c0.43-0.22,0.89-0.38,1.36-0.51
		c2.73-0.16,6-2.15,7.39,2.19c0.32,0.52-0.35,1.65,0.97,1.53c1.32-1.65-0.61-3.26,0.01-4.87c0.92-1.54,2.6-1.86,4.05-2.55
		c1.29-0.54,2.57-1.16,4.03-0.96c1.93,1.05,3.9,2.7,4.35-1.42c0.13-1.17,1.94-1.66,3.12-2.26c0.41-0.2,0.83-0.36,1.27-0.49
		c2.55-0.3,5.39-2.26,7.42,1.18c0.52-1.04,0.52-2.39,1.36-3.39c1.24-1.69,3.3-2.26,4.85-3.54c1.21-0.99,1.7-2.37,2.08-3.82
		c0.62-2.35,0.67-4.7-0.06-7.04c-0.59-1.9-1.7-3.52-2.74-5.19c-0.58-1.17-0.87-2.46-1.48-3.61c-0.69-1.32-1.58-2.5-2.62-3.56
		c-0.3-0.29-0.57-0.61-0.81-0.95c-0.45-0.72-0.64-1.5-0.59-2.35c0.33-0.27,0.66-0.53,0.99-0.8c8.06,4.32,13.49,18.68,10.38,27.18
		c-0.55,1.5-1.31,2.84-2.68,3.41c-3.21,1.32-5.15,3.16-4.59,7c0.22,1.5-1.14,2.31-2.61,2.45c-1.67,0.16-3.48,0.26-4.33-1.57
		c-0.53-1.14-0.27-2.87-2.43-1.87c-1.33,0.61-2.43,0.89-2.89,2.82c-1.05,4.36-3.74,5.22-7.72,2.79c-2.75-1.68-3.62-1.01-3.63,2.1
		c-0.01,4.06-2.56,5.89-6.35,6.14c-1.89,0.13-3.84-0.11-3.99-2.61c-0.09-1.48-0.48-2.4-1.99-1.54c-0.91,0.52-2.3,0.19-2.43,2.36
		c-0.32,5.27-5.93,7.2-10.39,3.95C306.72,416.83,308.46,419.79,307.72,419.98z"/>
	<path class="st5" d="M289.78,319.24c-1.01-0.4-1.53-1.23-1.91-2.19c0.73-0.23,1.49-0.95,2.21-0.07
		C290.75,317.79,289.99,318.5,289.78,319.24z"/>
	<path class="st6" d="M362.78,390.44c0.12,1.58-0.29,2.87-1.87,3.54c-1.94,0.89-4.06,1.38-5.83,2.65c-2.87,1.77-6.48,1.55-9.31,3.42
		l0.14-0.11c-2.94,0.45-5.17,2.81-8.18,3.05c-1.66,0.18-3.13,0.94-4.63,1.59c-1.53,0.5-2.98,1.19-4.32,2.09
		c-2.62,0.71-5.35,1.09-7.83,2.29c-0.41,0.03-0.83,0.07-1.24,0.1c-1.37,1.44-3.44,1.52-5.02,2.55c-2.48,1.78-5.6,1.75-8.29,2.94
		c-6.98,3.52-14.06,1.63-20.85-0.26c-4.97-1.38-9.43-1.16-13.95,0.88c-9.51,4.28-19.7,6.9-28.86,12c-1.2,0.88-2.55,1.47-3.95,1.96
		c-3.67,1.57-7.45,2.92-11,4.77c-0.36,0.25-0.75,0.42-1.17,0.54c-1.45,0.1-2.89,0.24-4.12,1.13c-0.53,0.35-1.07,0.66-1.67,0.86
		c-1.63,0.3-3.28,0.49-4.78,1.27c-1.51,0.72-3.13,1.17-4.6,1.97c-0.56,0.33-1.13,0.63-1.75,0.82c-2.14,0.35-4.25,0.76-6.08,2.03
		c-0.55,0.37-1.12,0.68-1.74,0.91c-1.68,0.32-3.39,0.53-4.94,1.35c-1.37,0.65-2.8,1.12-4.28,1.42c-1.85,0.41-3.49,1.29-5.08,2.3
		c-0.52,0.36-1.06,0.66-1.66,0.86c-1.21,0.16-2.43,0.27-3.58,0.75c-1.37,0.47-2.74,0.93-4.12,1.39c-0.4,0.12-0.81,0.18-1.22,0.19
		c-0.4-0.01-0.8-0.08-1.19-0.17c-1.42-0.39-2.09,0.78-3,1.47c-5.35,2.41-10.43,5.49-16.72,5.04c-3.29-0.23-4.06,2.81-5.15,5.17
		c-0.58,1.11-1.38,1.97-2.68,2.22c-2.57-0.38-5,0.08-7.32,1.22c-2.66,0.61-5.16-1.37-7.84-0.49c-0.3,0.1-0.67-0.03-0.95-0.2
		c-1.01-0.61,0.03-4.02-2.96-2.01c-2.18,1.47-2.2,3.38-2.09,5.65c0.09,1.94,1.81,4.2-0.75,5.83c-2.29-0.15-4.71,0.57-6.78-1.02
		c-1.74-1.99-2.97-4.04-1.06-6.64c0.96-1.31,0.76-2.83,0.48-4.32c-1.31-7.16-1.93-14.45-4.56-21.35c-1.65-4.32-0.63-9.15,1.8-9.29
		c4.83-0.28,4.18,4.2,5.32,7.03c0.49,1.22,0.56,2.59,0.9,3.87c0.38,1.45,0.72,3.1,2.66,3.09c1.92-0.01,2.98-1.29,3.42-3.06
		c0.59-2.42,0.94-4.88,1.23-7.35c0.65-5.68,3.35-9.97,8.59-12.48c1.15-0.55,2.39-0.36,2.47-0.36c0,0-1.16-0.24-2.28,0.19
		c-2.37,0.53-3.55,3.06-5.95,3.54c-1.14-0.43-1.27-1.32-1.07-2.35c4.58-6.11,10.11-7.57,16.46-3.98c1.91,1.08,3.44,1.53,5.55,0.74
		c2.09-0.78,4.13-0.16,4.92,2.09c0.76,2.16-0.33,3.86-2.25,5c-3.29,1.97-3.29,1.97-4.26,5.44c4.49-0.77,8.8-2.19,13.13-3.6
		c3.42-1.12,4.44-2.55,3.34-6.16c-1.36-4.46-3.43-7.02-8.28-8.65c-9.33-3.12-13.7-11.5-17.6-19.9c-0.32-0.66-0.49-1.36-0.52-2.1
		c-0.13-1.7-0.51-3.39-0.15-5.09c0.34-1.95,0.12-3.68-1.87-4.7c-4.09-4.56-9.19-7.95-13.86-11.85c-1.15-0.96-2.43-1.7-3.12-3.09
		c-1.82-2.94-0.43-4.7,2.28-5.8c2.64-1.07,5.43-1.63,8.27-1.53c4.73,0.17,7.82-2.19,10.03-6.1c1.98-3.48,3.24-7.27,4.64-10.99
		c1.05-2.81,1.92-6.24,5.61-6.08c3.52,0.15,5.34,2.95,6.21,6.23c0.12,0.66,0.18,1.35,0.33,2c0.74,1.5,2.06,0.86,3.2,0.83
		c0.44-0.04,0.87,0,1.29,0.11c1.95,1.15,4.18,1.08,6.31,1.43c0.45,0.13,0.85,0.33,1.24,0.6c2.16,1.87,1.08,4.75,2.17,6.97
		c0.72,1.46,0.95,3.41,3.03,3.52c2.15,0.11,3.77-0.98,4.91-2.83c1.24-2.01,0.79-4.6,2.28-6.51c0.46-0.18,0.9-0.16,1.35,0.05
		c0.93,4.65,6.34,6.14,7.53,10.67c0.21,0.8,1.42,0.55,2.24,0.61c5.61,0.38,11.2,0.95,17.18,1.91c-1.51-0.6-2.64-0.99-3.36-2.03
		c-0.26-1.12,0.28-1.87,1.13-2.47c7.59-0.65,10.28,0.93,12.87,7.28c0.82,2.02,0.67,3.72-0.28,5.69c-1.25,2.62-2.65,3.1-4.98,1.39
		c-1.75-1.28-3.74-2.17-5.64-3.21c-1.64-0.89-3.31-1.64-5.59-0.19c2.08,1.45,3.36,3.51,5.59,4.58c1.16,0.55,1.86,1.44,1.62,2.78
		c-0.24,1.36-1.32,1.89-2.51,2.07c-2.47,0.38-4.92,0.79-7.36,1.36c-2.99,0.71-4.12,2.75-1.34,4.2c8.86,4.61,3.09,12.21,4,18.32
		c0.38,2.58-2.9,2.05-4.6,0.92c-5.8-3.84-10.69-8.51-12.64-15.51c-0.8-2.85-1.34-5.78-2.58-9.3c-1.53,2.8-1.26,4.95,0.06,6.63
		c3.02,3.82,2.9,8.42,3.57,12.8c0.76,5.01-0.88,9.18-5.11,12.19c-1.47,1.13-3.24,1.71-4.83,2.57c-0.27,0.26-0.75-0.01-1.02,0.32
		c-0.03,0.04,0.09,0.17,0.13,0.14c0.65-0.33,1.34-0.59,1.97-0.97c1.74,0.02,2.37,1.44,3.42,2.64c-1.43-2.42-0.93-4.14,1.63-5.13
		c6.6-0.83,12.35-4.49,18.96-5.59c2.74-0.46,4.38-0.19,6.07,1.47c2.51,2.48,5.24,2.98,8.63,1.96c3.96-1.19,7.87-2.58,11.88-3.62
		c1.56-0.4,3.65-0.74,3.73-2.71c0.07-1.81-2.01-1.88-3.31-2.48c-1.78-0.82-3.84-1.24-4.56-3.46c0.39-1.59,1.66-1.68,2.95-1.74
		c1.95,0.24,3.86,0.86,5.86,0.58c1-0.12,2.01-0.24,2.95,0.3c4.55,6.06,4.51,5.94,12.15,3.7c7.12-2.08,14.07-4.88,21.55-5.62
		c1.05,0.29,2.04,0.64,2.01,2.01c-1.09,1.67-2.92,2.15-4.64,2.69c-30.22,9.56-60.59,18.61-87.97,27.35
		c34.1-9.75,70.36-22.67,107.75-31.7c1.81-0.68,3.84-0.62,5.54-1.63c1.9-0.83,3.9-1.39,5.85-2.11c0.66-0.32,1.33-0.61,2.05-0.77
		c-1.19,0.08-2.15,0.85-3.27,1.13c-1.47,0.4-2.86,1.05-4.33,1.45c-2.2,1.13-4.63,1.46-6.99,2.08c-1.93-3.01-1.67-3.54,2.86-5.88
		c0.58-0.2,1.17-0.4,1.75-0.6c1.43-0.39,3.06-0.25,4.14-1.57c1.76-1.4,3.97-1.7,6-2.42c0.63-0.35,1.26-0.69,1.88-1.04
		c1.77,0.76,3.19-1.19,4.93-0.65c0.39-0.44,0.78-0.87,1.17-1.31c2.49-1.4,5.12-2.42,7.92-2.97c0.37-0.01,0.74-0.03,1.11-0.04
		c1.8-1.13,3.88-1.67,5.7-2.78c2.35-1.43,5.52-0.95,7.48-3.27l0.29,0.05c2,0.11,3.76-0.52,5.36-1.67c1.53-1.19,3.74-0.88,5.16-2.33
		c1.03-0.01,2.06-0.02,3.09-0.03c2.27-1.23,4.21-0.6,5.95,1.08l-0.11-0.1c1.31,1.55,2.59,3.12,3.51,4.95
		c0.79,1.38,0.8,3.14,2.06,4.31c0.94,1.72,1.74,3.5,2.54,5.29C363.49,385.83,363.66,388.14,362.78,390.44z"/>
	<path class="st7" d="M184.99,411.26c6.43-7.24,6.64-14.83,1.24-23.41c-2.1-3.35-2.55-7.21,1.3-10.5c2.22,3.33,2.47,7.16,3.34,10.74
		c1.83,7.5,7.03,12.2,13.03,16.28c1.76,1.2,2.93,0.95,2.31-1.6c-0.12-0.48-0.34-1.04-0.2-1.46c2.29-7.23,0.53-12.9-5.92-17.28
		c-1.93-1.31-1.07-2.67,1.33-3.12c3.55-0.67,6.92-2.35,10.69-1.77c0.81,0.13,1.77,0.34,1.76-0.92c0-0.6-0.48-1.75-0.62-1.73
		c-4.34,0.57-4.61-6.58-10.16-4.23c5.62-5.68,9.21-5.02,18.16,2.5c1.44-0.84-0.53-1.89-0.1-2.18c4.15-2.79,1.51-5.29-0.07-8.04
		c-1.81-3.16-4.22-4.59-7.89-4.16c-0.66,0.08-1.49-0.57-2.29-0.07c-3.37,1.39-6.1-1.3-9.21-1.46c-0.58-0.12-1.02-0.64-1.67-0.62
		c0.28,0.11,0.55,0.24,0.84,0.41c3.1,0.92,6.33,1.39,9.07,3.23c2.11,1.53,5.87,0.09,6.97,3.87c-6.33-0.75-12.5-1.4-18.65-2.27
		c-1.2-0.17-2.23-0.41-3.28,0.26c-2.66,1.7-2.94,0.09-3.12-2.09c-0.17-2.15-0.51-4.06-3.47-4.5c-3.76-0.56-1.3-4.16-2.41-6.1
		c-1.85-1.73-1.02-4.2-1.73-6.23c-0.13-0.45-0.23-0.91-0.3-1.37c-0.13-1.82-0.57-3.49-2.27-4.51c-1.17-0.94-2.54-1.5-3.95-1.98
		c-0.82-0.31-1.56-0.75-2.28-1.23c-1.1-0.74-2.28-1.31-3.49-1.85c-4.06-2.21-8.41-2.01-12.8-1.62c-1.22-0.88-1.39-2.2-1.51-3.55
		c-0.04-1.99-0.19-4,1.24-5.66c3.61,0,7,0.47,9.76,3.22c1.96,1.95,5.37,0.56,7.28,2.85c1.43-0.36-0.11-0.68-0.01-1.02
		c-0.75-1.3,1.47-5-3.96-2.77c3.86-2.97,1.7-8.48,6.8-9.13c2.11-0.05,4.2,0.1,6.3,0.3c0.43,0.04,0.84,0.17,1.23,0.35
		c1.6,1.16,3.49,1.5,5.35,1.95c1.32,0.25,2.6,0.66,3.92,0.9c2.63,0.99,5.38,0.32,8.07,0.6c1.38,0.45,2.64,1.14,3.88,1.86
		c3.5,3.34,6.29,7.16,7.87,11.78c-0.39,1.43,1.05,2.64,0.51,4.09c3.67,2.83,5.14,7.08,7.11,11c3.1,2.92,3.67,7.17,5.62,10.69
		c0.84,1.71,1.37,3.54,2.17,5.27c1.28,2.63,2.31,5.37,3.5,8.04c1.95,4.61,2.84,9.44,3.21,14.41c0.2,2.76-0.97,4.02-3.66,4.02
		c-1.48,0-2.97-0.07-4.45-0.1c-6.7-0.14-12.46,1.47-15.41,8.23c0.07,0.31-0.68,0.23-0.37,0.72c0.16-0.24,0.32-0.47,0.51-0.73
		c3.33-4.35,14.89-9.31,19.87-6.78c1.91,0.97,4.16,1.32,3.83,4.2c-2.03-0.07-4.19,0.59-5.93-1.09c-1.2-0.21-2.83-1.53-2.96,1.11
		c2.07,1.46,4.37,2.45,6.85,2.73c1.77,0.2,2.81,0.89,3.03,2.63c0.22,1.78-0.8,2.88-2.36,3.34c-6.19,1.86-12.43,3.55-18.59,5.49
		c-2.36,0.74-4.43-0.67-5.21-1.83c-3.78-5.65-8.21-2.47-12.12-1c-4.37,1.64-8.6,3.46-13.32,3.77
		C186.26,412.41,185.21,412.92,184.99,411.26z"/>
	<path class="st7" d="M139.08,424.03c-6.23,3.76-8.55,9.76-8.48,16.53c0.06,5.96-2.77,8.32-8.34,8.58
		c-1.09-4.54-2.23-9.2-3.29-13.87c-0.24-1.04-0.52-2.16-1.68-2.05c-1.09,0.1-2.3,0.63-2.3,2.15c0.01,1.99-0.65,4.36,0.19,5.91
		c4.22,7.83,3.59,16.68,5.64,24.94c0.19,0.75,0.07,2.29-0.1,2.32c-6.12,1.07,0.02,3.58-0.65,5.24c0.13,0.99-0.31,1.61-1.31,1.59
		c-6.84-0.1-13.69,0.65-20.51-0.48c-2.22-5.78-2.98-11.85-3.46-17.95c-0.73-9.08-1.65-18.17-1.83-27.27
		c-0.24-12.22,8.59-23.4,20.23-26.36c2.8-0.71,5.08,1.12,7.4,2.23c6.49,3.12,13.68,1.51,17.21-4.8c1.1-1.97,5.62-0.77,3.94-4.67
		c0.42-0.47,0.89-0.52,1.4-0.15c4.09,5.9,7.27,12.5,13.32,16.89c1.23,0.89,2.43,1.67,3.86,2.11c2.17,0.67,5.44,0.62,6.31,2.05
		c2.01,3.31,2.89,7.32,4.16,11.06c0.3,0.88-0.12,1.84-0.94,2.07c-6.93,1.95-13.46,5.77-21.25,5.1c0.22-2.67,3.73,0.03,3.28-2.56
		c-0.24-1.36-1.1-2.61-1.82-4.21c2.33-0.66,4.8,0.9,6.37-1.01c0.87-1.06,2.18-2.44,1.04-3.96c-0.92-1.22-2.49-2.07-3.87-0.76
		c-2.56,2.41-3.81,1.25-6.13-0.83c-3.9-3.5-10.6-1.71-15.44,3.27c-0.83,0.66-0.74,1.55-0.28,2.27c0.2,0.31,0.62-0.38,0.97-0.56
		c1.36-1.79,2.94-3.26,5.24-3.72C138.36,423.4,138.92,423.46,139.08,424.03z"/>
	<path class="st7" d="M273.72,394.93c-7.41,2.07-14.84,4.07-22.22,6.22c-8.47,2.47-8.46,2.53-11.69-5.13
		c-2.82-2.85-2.45-6.73-2.72-10.14c-0.37-4.65-1.55-8.95-3.32-13.16c-0.72-1.3-1.2-2.7-1.5-4.15c0-0.8,0.1-1.58,0.53-2.29
		c0.63-1.03,3.64-0.46,2.25-2.61c-1.38-2.15-2.63,0.65-4.04,0.76c-0.48,0.07-0.91-0.05-1.3-0.33c-0.36-0.87-0.32-1.81-0.54-2.71
		c1.28-2.41,0.34-4.01-1.87-5.16c-1.78-2.57-2.98-5.37-3.22-8.52c-0.66-3.85-3.85-7.25-2.09-11.54c0.42-2.1-0.51-4.6,1.81-6.15
		c0.08-0.32,0.16-0.65,0.24-0.97c5.14,1.98,4.96-2.25,5.7-5.07c0.71-2.7,3.01-2.88,4.95-3.5c2.06-0.66,2.32,1.51,3.03,2.62
		c4.35,6.75,9.2,13.18,15.56,18.04c4.68,3.57,4.31,8.07,4.23,12.82c6.24-3.58,6.24-3.58,12.56,0.72c8.36,5.68,9.39,13.64,2.75,21.19
		c-2.18,4.35-5.97,6.91-10.1,9.08c-1.74,0.09-3.49,0.09-5.24,0.04c1.43,0.16,2.89-0.1,4.31,0.27c2.67,2.31-0.08,2.42-1.28,3.17
		c-1.72,0.65-3.2,1.84-5,2.3c-0.41,0.17-0.84,0.33-1.28,0.41c0.67,0.11,1.18-0.38,1.79-0.5c1.48-0.5,2.81-1.28,4.16-2.04
		c3.17-1.01,5.86-2.43,7.45-5.75c1-2.09,2.65-4.12,5.39-4.45c2.06,1.03,3.48,1.9,2.07,4.87c-0.89,1.89-0.14,4.57,0.93,6.73
		C278.21,393.59,278.08,393.89,273.72,394.93z"/>
	<path class="st8" d="M186.22,317.19c-0.36-0.04-0.72-0.09-1.08-0.13c-1.93-0.13-3.73-0.63-5.27-1.87c-2.17-0.28-3.4-1.18-2.56-3.63
		c0.32-0.93,0.28-1.99,0.64-2.9c3.62-9.26-1.57-17.56-2.87-26.27c-0.47-3.11-1.29-6.09-0.3-9.28c0.43-1.36,0.37-2.98,0.14-4.41
		c-0.47-2.86-0.07-2.48,1.6-4.84c2.05-2.9,3.16-6.48,4.6-9.8c1.63-3.8,3.07-7.55,7.1-9.77c3.34-1.84,6.25-1.57,8.68,0.9
		c0.97,0.99,1.49,1.22,2.18,0.44c5.73-6.4,11.38-2.17,16.33,0.7c8.09,4.69,9.38,8.83,6.24,18.07c-0.59,1.72,1.65,3.54-0.65,4.72
		c-0.81,0.64-1.79,0.48-2.72,0.56c-2.3-0.91-3.57-3.49-6.21-3.86c-1.23-0.49-2.35-1.21-3.51-1.83c-1.59-0.95-3.22-0.61-4.86-0.12
		c-0.8,0.19-1.61,0.23-2.42,0.21c-1.61-0.04-3.19,0.53-3.38,2.1c-0.23,1.89,1.15,2.87,3.1,2.8c2.97-0.32,5.87-0.12,8.57,1.28
		c0.7,0.44,1.59,1.14,1.34,1.84c-0.88,2.56,0.83,0.81,1.21,0.71c1.71-0.47,3.38-1.08,5.08-1.53c1.54,0.62,1.78-2.81,3.65-1.2
		c1.77,3.36-2.41,5.1-2.21,8.13c0.08,1.28-2.29,2.85,1.19,3.17c1.95,0.18,0.22,2.57,0.04,2.62c-4.24,1.35-4.09,5.48-5.57,8.55
		c-2.56,5.32-7.7,7.47-12.58,9.51c-5.1,2.13-10.63,2.58-16.1,0.78c-1.02-0.34-2.17-1.29-2.9,0.44c-0.43,1.01-0.31,1.82,0.47,2.69
		c2.41,2.66,5.42,4.72,6.85,8.36c0.57,1.46,3.28,0.77,5.05,0.84c11.43,0.4,19.21,7.49,20.65,18.81c-0.26,0.49-0.55,0.52-0.85,0.03
		c-2.41-3.91-4.71-7.9-8.15-11.05c-0.7-1.47-2.08-1.96-3.49-2.44c-2.39-0.69-4.79,0.45-7.18-0.08c-1.08-0.37-2.15-0.79-3.26-1.07
		C190.64,318.59,188.06,318.99,186.22,317.19z"/>
	<path class="st8" d="M176.31,335.04c0.54,0.34,1.08,0.67,1.63,1.01c0.98,1.1,2.3,1.68,3.53,2.42c1.98,0.85,2.42,2.88,3.43,4.46
		c0.01,0.36,0.02,0.72,0.03,1.07c0.89,2.33,0.55,4.68,0.18,7.04c-0.65,2.94,0.35,6.3-2.42,8.72c-2.03,1.77-4.8,2.88-6.73,1.74
		c-2.44-1.44-3.17-4.84-3.41-7.66c-0.1-1.18-0.05-2.5-0.28-3.74c-0.39-2.22-1.13-4.16-3.81-4.68c0.88,1.59,3.26,2.29,2.57,4.63
		c-2.61,0.21-5.18,0.27-7.08-2.02c-1.93,0.02-3.9,0.12-4.99-1.97c0.28-3.57-2.32-6.1-4.78-6.66c-3-0.68-3.82,2.84-4.73,5.38
		c-1.23,3.42-2.6,6.81-4.13,10.1c-2.45,5.26-5.76,9.14-12.54,8.16c-2.16-0.31-4.54,0.77-6.81,1.25c-2.6,0.56-3.62,2.14-2.96,4.75
		c-2.45-0.54-2.24-2.59-2.26-4.32c-0.04-4.29,0.07-8.57,0.18-12.86c0.02-0.63,0.14-1.61,0.54-1.82c5.56-2.95,5.07-8.59,5.66-13.45
		c0.77-6.46,5.96-5.41,9.87-6.69c3.96,0.05,3.96,0.05,2.9,6.24c0.76-1.79-0.1-4.39,1.86-6.16c1.76-9.39,3.18-18.86,6.38-27.93
		c1.29-1.94,1.63-4.28,2.7-6.31c-0.12-6.22,1.23-7.48,7.03-6.5c0.77,0.13,1.63,0.39,2.22,0.87c1.15,0.92,1.73,15.33,0.71,15.4
		c-4.33,0.28-4.45,6.21-10.02,5.56c1.49,0.98,1.81,1.34,2.19,1.42c3.93,0.78,6.71,2.24,4.96,7.09c-0.36,0.99,0.11,2.28,0.2,3.43
		c0.7,1.8,0.2,3.68,0.35,5.52c0.32,1.66-1.12,4.69,2.78,3.55c3.34-0.3,6.65-0.33,9.8,1.06
		C172.75,333.82,174.35,334.93,176.31,335.04z"/>
	<path class="st9" d="M283.07,332.93c1.07-0.38,1.11-1.05,0.52-1.88c-2.63-3.62-5.23-7.26-7.94-10.82
		c-0.65-0.85-1.42-2.51-2.85-0.46c-0.41,0.58-0.95,0.31-0.86-1.05c0.3-4.76-1.26-9.06-3.33-13.83c4.77,0.53,7.91,3.87,10.13,6.48
		c13.45,15.81,28.47,30.18,41.9,45.99c-0.24,0.36-0.47,0.73-0.71,1.09c-12.67-8.15-25.35-16.31-38.02-24.46
		C281.77,333.07,282.02,332.57,283.07,332.93z"/>
	<path class="st9" d="M276.93,386.89c1.94-8.75,3.36-17.54,0.97-27.09c10.46,5.7,20.3,11.03,30.07,16.48
		c0.83,0.46,2.91,1.32,1.27,2.81c-1.05,0.95-2.86,2.32-4.29,0.37c-1.97-2.69-4.31-2.16-6.57-0.88c-2.3,1.3-4.97,2.65-3.2,6.52
		c-5.93-3.89-8.41-2.92-10.82,3.49c-0.44,1.17-1.71,2.02-1.54,3.51c-0.16,0.22-0.33,0.43-0.49,0.65c-4.41,1.52-5.08,1.13-5.05-3
		C277.3,388.77,277.56,387.78,276.93,386.89z"/>
	<path class="st10" d="M292.94,388.61c-1.2,1.39-2.6,2.67-3.55,4.22c-0.84,1.38,0.63,0.83,1.2,0.97c1.06-0.38,1.39,0.08,1.24,1.08
		c-16.54,4.87-33.09,9.68-49.61,14.64c-19.48,5.85-38.93,11.8-58.36,17.83c-2.42,0.75-4.65,0.63-7.17-0.5
		c33.05-10.33,66.11-20.66,99.16-30.99c1.89-2.16,5.12-1.9,7.1-3.9c0,0-0.11,0.15-0.11,0.15c1.87,0.02,3.08-1.22,3.81-2.59
		C289.58,384.03,289.52,383.99,292.94,388.61z"/>
	<path class="st11" d="M253.86,305.06c0.22,2.77,2.27,4.22,4.13,5.87c3.61,3.22,5.6,7.36,6.7,12.11
		c-7.94-5.02-16.95-8.37-22.45-16.43c-0.76-1.11-3.43-2.28-0.48-4.32c2.38-1.65,4.25-2.03,6.15,0.28c1.32,1.6,2.66,2.96,4.97,2.49
		C253.21,304.74,253.54,304.74,253.86,305.06z"/>
	<path class="st12" d="M98.25,474.89c5.75,0,11.51,0.04,17.26-0.02c1.57-0.02,3.35,0.55,4.55-1.09c1.96,1.72,4.35,0.91,6.57,1.09
		c2.15-1.59,4.67-1.43,7.14-1.44c10.89-0.03,21.78-0.06,32.66,0.02c3.35,0.02,5.85-0.75,6.54-4.43c1.37-2.19,2.24-1.08,2.84,0.52
		c0.61,1.62,0.42,3.55,1.97,4.78c0.37,0.46,0.4,0.94,0.1,1.45c-19.27,0.05-38.55,0.1-57.82,0.16c-3.37,0.01-6.74,0.08-10.11,0.12
		C106.12,475.08,101.99,476.98,98.25,474.89z"/>
	<path class="st13" d="M253.86,305.06l-0.49,0.02l-0.49-0.02c0.26-1.78-2.8-2.02-1.89-4.27c4.27,0.55,8.43,2.06,12.87,1.2
		c1.04-0.2,3.55,0.11,2.12,2.86c-0.51,0.99-0.08,2.47-0.08,4.09c-1.5-1.94-1.41-1.76-3.3-0.84c-0.61,0.3-1.84-1.01-2.75-0.95
		C257.49,307.3,256.11,305,253.86,305.06z"/>
	<path class="st14" d="M222.76,323.41c2.23-7.19,4.24-13.68,6.26-20.16c0.69,3.53,5.91,7.25-0.77,10.46
		c-1.66,0.8-2.23,3.48-2.19,5.71C226.09,321.19,225.65,322.68,222.76,323.41z"/>
	<path class="st15" d="M273,378.38c-1.89,2.56-5.13,3.8-5.49,8.02c-0.17,2-4.76,2.34-7.57,2.76c-0.3-0.21-0.41-0.43-0.32-0.66
		c0.09-0.24,0.18-0.35,0.27-0.35c0.16-1.24,2.83-0.26,2.06-2.33c-0.3-0.91,0.24-1.34,0.95-1.67c3.3-2.76,6.61-5.53,9.91-8.29
		C272.87,376.69,272.94,377.54,273,378.38z"/>
	<path class="st16" d="M304.83,384.02c-1.38,2.22-3.92,2.11-5.96,3.01c-0.74-0.5-0.34-1.47-0.86-2.07c-2.03-2.77,0.14-3.8,2.1-4.63
		c3-1.28,2.63,0.97,2.77,2.8C302.97,384.25,304.09,383.9,304.83,384.02z"/>
	<path class="st17" d="M320.74,378.05c-2.47,1.45-4.81,3.23-7.92,2.97c3.68-3.38,0.17-4.5-2.01-6.47c2.03,1.32,5.88-4.27,6.26,2.32
		C317.18,378.91,319.54,377.48,320.74,378.05z"/>
	<path class="st18" d="M335.03,371.97c-1.17,3.54-4.69,2.81-7.18,3.96c-0.43-0.26-1.01-0.34-1.13-0.95c0.26-1.48-2.3-3-0.09-4.38
		c2.15-1.34,2.43,0.48,3.47,1.89C331.49,374.38,333.31,371.88,335.03,371.97z"/>
	<path class="st19" d="M345.84,368.02c-0.38,3.02-3.15,2.23-4.89,3.06c-1.11,0.36-1.37-0.15-1.14-1.13
		c0.03-0.16,0.03-0.33,0.08-0.49c0.65-1.97-3.31-3.52-1.09-5.02c2.18-1.46,1.79,2.66,3.71,2.91
		C343.63,367.49,344.73,367.79,345.84,368.02z"/>
	<path class="st20" d="M282.94,391.95c-1.47,2.94-4.43,3.16-7.1,3.9c-0.71-0.31-1.42-0.61-2.13-0.92c2.53-0.84,3.11-2.57,2.28-4.95
		c1.14-0.78,0.61-2.06,0.93-3.08c0.24,0.43,0.69,0.86,0.67,1.27C277.46,392.19,279.09,393.62,282.94,391.95z"/>
	<path class="st21" d="M224.06,347.69c1.33,2.78,2.65,5.56,3.98,8.34c0.66,0.89,0.93,1.86,0.67,2.95c-0.16,0.52-0.46,0.93-0.9,1.24
		c-2.22-3.47-3.56-7.32-4.81-11.21C223.35,348.57,223.71,348.13,224.06,347.69z"/>
	<path class="st7" d="M143.13,395.93c-0.47,0.05-0.93,0.1-1.4,0.15c-1.24-0.69-0.64-1.92-0.87-2.91c-0.58-1.74-0.68-3.48,0.06-5.21
		c0.37-1.49-0.47-2.69-0.98-3.96c2.82,0.01,3.44,1.57,2.86,4.01c-0.63,2-0.52,4.01-0.06,6.02
		C142.87,394.66,143,395.29,143.13,395.93z"/>
	<path class="st22" d="M141.71,330c-0.89,2.52-0.21,5.55-2.17,7.67c-2.57-2.13,4.53-7.08-2.59-7.75
		C138.56,328.31,140.14,329.12,141.71,330z"/>
	<path class="st23" d="M150.79,295.76c0.77,2.82,0.82,5.33-2.7,6.31C148.13,299.6,147.79,296.97,150.79,295.76z"/>
	<path class="st24" d="M283.07,332.93c-0.39,0.36-0.78,0.72-1.18,1.07c-2.11-0.87-4.08-1.85-4.02-4.92
		C280.26,329.89,281.61,331.48,283.07,332.93z"/>
	<path class="st25" d="M221.91,335.11c-2.38-1.62-2.2-4.8,0.41-6.87c0.03-0.03,0.26,0.13,0.33,0.24c0.09,0.13,0.12,0.31,0.17,0.46
		C222.41,330.98,222.87,333.15,221.91,335.11z"/>
	<path class="st26" d="M179.87,315.19c1.81,0.46,3.81,0.4,5.27,1.87c-2.43,1.86-4.32-0.18-6.4-0.87
		C179.12,315.85,179.5,315.52,179.87,315.19z"/>
	<path class="st12" d="M354.89,369.07c-2.08,0.17-3.79-1.69-5.95-1.08c1.12-2.55,3.03-1.76,4.9-1.16
		C354.19,367.57,354.54,368.32,354.89,369.07z"/>
	<path class="st27" d="M326.72,374.97c0.38,0.32,0.75,0.64,1.13,0.95c-1.85,1.13-3.71,2.22-6,2.08
		C322.51,375.45,325.04,375.9,326.72,374.97z"/>
	<path class="st28" d="M221.91,335.11c-0.01-2.1-0.53-4.28,0.91-6.17c0.32,0.35,0.64,0.71,0.96,1.06c-0.41,2.11-0.41,4.33-1.81,6.15
		C221.95,335.8,221.93,335.45,221.91,335.11z"/>
	<path class="st29" d="M339.81,369.95c0.38,0.38,0.76,0.76,1.14,1.13c-1.77,0.96-3.41,2.67-5.63,0.94
		C336.81,371.33,338.31,370.64,339.81,369.95z"/>
	<path class="st30" d="M298.01,384.96c0.29,0.69,0.57,1.38,0.86,2.07c-1.2,1.17-2.46,2.06-4.18,0.98
		C295.25,386.4,298.11,387.29,298.01,384.96z"/>
	<path class="st31" d="M311.65,382.33c-1.66,0.1-2.97,2.85-4.93,0.65C308.3,382.31,309.75,380.58,311.65,382.33z"/>
	<path class="st32" d="M218.07,269.07c0.97,0.01,1.94,0.03,2.91,0.04c-0.03,0.33-0.08,0.65-0.13,0.98c-1.78-0.54-1.12,2.65-3,1.97
		C217.02,270.99,217.06,270,218.07,269.07z"/>
	<path class="st28" d="M175.91,328.08c1.37,0.79,2.67,1.64,3.02,4.44c-1.37-1.56-2.19-2.49-3.01-3.42
		C175.91,328.76,175.91,328.42,175.91,328.08z"/>
	<path class="st33" d="M158.04,329.05c0.01-2.01,0.02-4.01,0.03-6.02c0.27-0.02,0.54-0.02,0.81-0.01c-0.02,2.01-0.04,4.02-0.05,6.03
		C158.56,329.51,158.3,329.49,158.04,329.05z"/>
	<path class="st34" d="M214.9,334.02c0.28-0.02,0.56-0.03,0.85-0.03c-1.25,1.39,3.09,2.58,0.14,4.03
		C214.76,336.88,214.66,335.49,214.9,334.02z"/>
	<path class="st35" d="M140.92,387.96c-0.02,1.74-0.04,3.47-0.06,5.21C139.45,391.41,139.65,389.68,140.92,387.96z"/>
	<path class="st7" d="M269.84,425.86c2.43-1.77,4.86-3.23,8.08-1.81c1.62,0.72,3.41,0.17,4.66-0.97c3.06-2.79,4.23-0.96,5.18,1.86
		c5.33,15.81,9.76,31.88,14.12,47.97c0.97,3.38-1.71,2.46-3.17,2.47c-9.57,0.1-19.14,0.04-28.7,0.05
		c-3.93-2.21-5.65-6.39-4.85-11.87c-0.92,1.78-6.95,8.97-8.27,9.59c-2.02,0.96-4.1,1.7-5.38-1.14c1.86-5.38,4.61-10.4,6.47-15.78
		c0.11-0.27,0.24-0.54,0.39-0.79c0.16-0.25,0.3-0.51,0.41-0.78c-0.29,0.07-0.21,0.39-0.41,0.58c-0.83,1.62-1.41,3.32-2.43,4.79
		c-0.9,1.3-1.76,3.2-3.56,2.86c-1.99-0.38-1.54-2.51-1.79-4.03c-0.16-2.88,0.11-5.75,0.7-8.6c-0.15-0.67-0.87,0.12-0.2,0.11
		c0.28,0,0.26,0.13,0.25,0.42c-0.07,1.21-0.77,1.71-1.88,1.82c-5.22-1.15-6.64-3.72-3.4-7.1c6.61-6.89,13.42-13.61,21.44-18.94
		C268.2,426.1,269.02,425.98,269.84,425.86z"/>
	<path class="st36" d="M258.93,456.04c-1.5,5.66-3.6,11.06-6.84,15.97c-0.76,1.82-1.79,3.24-4.09,2.77
		c-0.51-0.11-0.97-0.34-1.37-0.68c-1.82-3.61-0.61-7.49-1.02-11.23c-0.24-2.2,1.11-5.25-1.35-6.35c-2.26-1-4.16,1.52-6.01,2.8
		c-7.08,4.89-14.09,9.87-20.75,15.35c-0.55,0.14-1.1,0.21-1.66,0.2c-4.27-1.16-8.52,0.35-12.78,0.06c-1.91-0.13-4.02,0.55-5.56-1.24
		c-0.8-1.33-0.83-2.77-0.6-4.25c0.86-2.58,0.7-5.25,0.69-7.91c0.02-1.27-0.16-2.51-0.53-3.73c-0.56-2.45-0.25-5.03-1.1-7.45
		c-0.12-0.5-0.18-1.01-0.21-1.52c-0.05-1.3,0.01-2.57,0.69-3.73c1.53-1.47,3.56-1.63,5.48-2.11c0.18-0.34,0.35-0.69,0.53-1.03
		c2.56-0.55,5.13-1.1,7.53-2.19c0.09-0.31,0.26-0.58,0.49-0.81c2.03,0.17,3.76-0.77,5.56-1.46c1.5-0.98,3.32-0.97,4.92-1.63
		c0.15-0.3,0.3-0.61,0.45-0.91c1.93,0.03,3.7-0.88,5.6-1.03l-0.12,0.09c2.57-2.69,5.65-2.25,8.75-1.35c1.24,0.36,2.81,0.8,2.51,2.55
		c-0.29,1.69-1.85,1.64-3.18,1.71c-0.83,0.04-1.66,0.03-2.49,0.01c1.76,0.12,3.62-0.31,5.28,0.38c2.65,1.12,4.41,0.57,5.6-2.13
		c0.7-1.58,2.22-2.43,3.71-3.21c4.57-2.38,9.19-4.67,13.84-6.9c2.65-1.27,5.36-1.82,8.07-0.1c0.3,0.29,0.6,0.58,0.9,0.86
		c-6.74,5.64-13.72,10.99-19.95,17.21c-0.59,0.59-1.13,1.27-1.82,1.69c-1.93,1.17-2.29,3.18-2.47,5.04
		c-0.27,2.82,3.26-0.64,3.45,1.85c3.58,1.47,1.7,4.92,2.66,7.33c0.11,1.11,0.22,2.22,0.37,3.7c3.21-2.31,3.77-6.04,5.87-8.69
		C259.8,453.95,259.43,454.96,258.93,456.04z"/>
	<path class="st37" d="M197.88,472.85c3.8,2.29,7.96,0.64,11.93,1.06c2.43,0.25,4.91,0.12,7.36,0.16c-0.61,1.99-1.92,1.43-3.22,0.89
		c-1.7,0-3.4,0.01-5.11,0.01c-3.14,1.01-6.38,0.21-9.56,0.46c-1.17-0.03-2.34,0.1-3.5-0.18c-4.29-0.65-8.61-0.15-12.91-0.31
		c-1.8-0.07-3.68,0.28-5.24-1.04c-1.1-1.4-1.24-3.13-1.64-4.77c-0.21-1.59-0.46-3.18-0.4-4.8c0.03-1.53-0.07-3.05-0.58-4.52
		c-0.62-3.21-2.29-6.66,1.89-8.84c0.19-0.01,0.38-0.01,0.58-0.01c1.83,0.18,3.42-0.68,5.08-1.22c1.02-0.44,2.1-0.43,3.18-0.49
		c0.37-0.42,0.73-0.84,1.1-1.26c1.9-0.68,3.78-1.38,5.72-1.92c2.15-0.23,3.14,1.35,4.27,2.72c0.03,0.39,0.05,0.78,0.08,1.17
		c-0.19,3.08,0.55,6.07,0.88,9.09c0.21,2.27,0.08,4.55,0.11,6.82c0,0.46-0.01,0.93-0.04,1.4
		C197.85,469.13,196.29,470.99,197.88,472.85z"/>
	<path class="st1" d="M241.84,426.87c-0.22-1.91,1.42-1.98,2.53-2.42c10.11-4.03,20.24-8,30.36-12c3.28-1.3,6.43-0.51,9.68,0.33
		c7.37,1.9,14.81,3.39,22.43,1.39c0,0.18-0.01,0.36-0.01,0.53c-2.09,0.98-4.7,1.81-1.25,4.38c-0.6,1.77-2.49,2.49-3.53,1.79
		c-5.09-3.39-11.68-0.58-16.64-4.41c-3.44-2.66-7.2-2.3-11.02-0.41c-3.08,1.52-6.32,2.7-9.5,4.03c-6.75,4.38-14.11,7.17-22.02,8.56
		C242.11,428.3,241.52,427.85,241.84,426.87z"/>
	<path class="st38" d="M268.94,425c-9.17-0.17-15.75,6.12-23.52,9.43c-0.44,0.19-1.07,0.59-1.1,0.94c-0.7,6.98-4.26,4.82-8.01,2.62
		c-2.32-1.36-4.83,1.13-7.76-0.24c2.74-3.12,6.3-1.24,9.94-2.31c-4.05-2.57-7.63-3.37-11.63-1.42c-0.25-1.43,0.43-1.76,1.77-2.18
		c3.15-0.99,6.17-2.4,9.25-3.65c0.85,0.25,1.38,0.89,1.91,1.52c2.31,1.21,4.11-0.41,6.05-1.1c6.83-2.45,13.26-6.03,20.47-7.44
		C267.18,422.47,273.13,420.24,268.94,425z"/>
	<path class="st39" d="M266.32,421.19c-8.17,3.5-16.33,7.04-24.53,10.46c-1.52,0.63-3.47,1.18-2.94-1.84
		c0.85-1.83,2.71-1.31,4.14-1.78c7.31-2.65,14.61-5.3,21.92-7.95C265.37,420.45,265.85,420.82,266.32,421.19z"/>
	<path class="st40" d="M213.95,474.96c1.09-0.23,2.35,0.14,3.22-0.89c0.26,0.02,0.5-0.02,0.74-0.12c9.68-0.9,19.37-0.68,29.07-0.13
		c0.35,0.03,0.69,0.06,1.04,0.09c3.09,1.29,6.37-0.99,9.46,0.49c0.54,0.34,0.68,0.8,0.42,1.38c-14.18,0.06-28.36,0.13-42.54,0.19
		C214.63,475.97,214.09,475.75,213.95,474.96z"/>
	<path class="st41" d="M268.91,474c4.29,1.87,8.79,0.59,13.18,0.79c5.3,0.24,10.62,0.06,15.93,0.03c1.57-0.01,3.48,0.56,3.86-1.91
		c2.07,2.78,0.17,2.93-1.94,2.92c-12.35-0.02-24.7-0.04-37.05-0.07c-0.22-0.49-0.15-0.92,0.27-1.28
		C265.01,473.57,266.96,473.76,268.91,474z"/>
	<path class="st42" d="M177.89,475.76c-0.02-0.22-0.01-0.44,0.01-0.67c3.07-1.37,6.28-0.32,9.41-0.58c0.7,0.19,0.9,0.61,0.59,1.27
		C184.56,475.78,181.23,475.77,177.89,475.76z"/>
	<path class="st43" d="M198.9,475.07c3.31-0.03,6.63-0.06,9.94-0.1c-3.17,2-6.63,0.6-9.95,0.83c-0.31-0.16-0.41-0.33-0.31-0.49
		C198.69,475.15,198.79,475.07,198.9,475.07z"/>
	<path class="st44" d="M187.9,475.78c0.01-0.23,0.01-0.46,0-0.69c1.72-1.24,3.66-0.41,5.5-0.57c0.64,0.2,0.81,0.61,0.5,1.21
		C191.9,475.75,189.9,475.77,187.9,475.78z"/>
	<path class="st45" d="M193.9,475.73c0-0.19,0-0.38,0-0.58c0.52-0.84,1.23-0.68,1.97-0.39c1.01,0.1,2.01,0.2,3.02,0.3
		c0.01,0.25,0.01,0.49,0,0.74C197.23,475.78,195.56,475.76,193.9,475.73z"/>
	<path class="st46" d="M262.89,475.06c0,0.24,0,0.48,0,0.72c-1.67,0-3.34,0-5.01,0c0-0.26,0-0.52,0-0.78
		C259.57,473.53,261.24,473.51,262.89,475.06z"/>
	<path class="st14" d="M306.84,414.7c-0.05-0.18-0.05-0.36,0.01-0.53c2.35-1.81,5.2-2.37,7.94-3.22c1.06-0.52,1.16,0.06,1.02,0.9
		c-1.54,1.61,4.11,5.1-1.55,5.73c-1.49,0.17-2.98,0.34-3.14-1.24C310.74,412.56,308.34,414.99,306.84,414.7z"/>
	<path class="st47" d="M345.77,400.05c2.24-3.04,5.97-2.8,9-4.09c1.11-0.31,1.4,0.19,1.16,1.19c-0.21,0.59-0.25,1.35-0.65,1.75
		c-1.52,1.53,2.02,4.04-0.42,4.6c-2.71,0.63-1.48-2.47-2.23-3.81c-0.57-1.03-1.73-0.89-2.6-0.42
		C348.66,399.99,347.22,400,345.77,400.05z"/>
	<path class="st48" d="M320.94,408.97c2-2.39,5.03-2.26,7.66-3.11c1.31-0.31,1.65,0.32,1.43,1.49c1.46,1.97,3.5,3.95-0.11,5.83
		c-1.14-0.28-1.61-1.14-1.89-2.18C327.04,405.5,323.02,410.6,320.94,408.97z"/>
	<path class="st49" d="M336.85,402.21c3.06-0.58,5.66-3.01,9.06-2.27c-0.33,2.04-5.6,1.61-2.67,5.39c0.39,0.5-0.61,1.4-1.41,1.6
		c-0.77,0.19-1.6,0.27-2.1-0.64c-0.52-0.93-0.48-2.3-1.93-2.54C337.07,403.49,336.63,403.06,336.85,402.21z"/>
	<path class="st7" d="M362.05,382.96c-0.93-1.52-2.16-2.91-2.26-4.82c-0.43-0.47-0.39-0.9,0.11-1.29c2.22,0.97,2.34,3.17,2.98,5.07
		C363.49,382.97,362.85,383.03,362.05,382.96z"/>
	<path class="st50" d="M357.81,374.09c-1.2-1.59-2.59-3.07-3.03-5.12c2.38,0.34,3.02,2.26,3.75,4.1
		C358.48,373.54,358.24,373.88,357.81,374.09z"/>
	<path class="st51" d="M362.05,382.96c0.28-0.35,0.56-0.7,0.84-1.04c1.36,2.86,1.92,5.71-0.1,8.52
		C362.54,387.95,362.29,385.45,362.05,382.96z"/>
	<path class="st52" d="M336.85,402.21c0.32,0.52,0.63,1.04,0.95,1.55c-1.29,0.43-2.58,0.85-3.87,1.28
		c-1.11,0.33-1.38-0.17-1.14-1.17C334.14,403.32,335.49,402.77,336.85,402.21z"/>
	<path class="st25" d="M355.92,397.15c-0.39-0.4-0.77-0.8-1.16-1.19c1.9-1.12,3.76-2.35,6.14-1.98
		C359.95,396.15,357.42,395.84,355.92,397.15z"/>
	<path class="st53" d="M332.79,403.88c0.38,0.39,0.76,0.78,1.14,1.17c-1.3,0.77-2.6,1.54-3.9,2.3c-0.48-0.5-0.95-0.99-1.43-1.49
		C329.88,404.96,331.09,403.9,332.79,403.88z"/>
	<path class="st54" d="M315.81,411.85c-0.34-0.3-0.68-0.6-1.02-0.9c1.44-1.14,3.1-1.69,4.91-1.88
		C319.93,412.13,317.1,410.91,315.81,411.85z"/>
	<path class="st55" d="M328.03,411c0.63,0.73,1.26,1.45,1.89,2.18c-0.76,1.12-2.07,1.39-2.84,0.6
		C325.96,412.66,327.85,412,328.03,411z"/>
	<path class="st52" d="M357.81,374.09c0.24-0.34,0.48-0.68,0.72-1.02c0.85,1.12,1.63,2.27,1.37,3.79c-0.04,0.43-0.08,0.86-0.11,1.29
		C358.42,377.13,358.26,375.54,357.81,374.09z"/>
	<path class="st56" d="M176.92,450.97c-2.36,2.8-1.04,5.93-0.8,8.97c-0.24,0.26-0.53,0.39-0.87,0.41c-0.29-0.02-0.58-0.12-0.82-0.26
		c-0.74,1.13,0.6,1.89,0.49,2.89c0.22,1.72,0.46,3.43-0.92,4.84c-0.4,7.06-0.4,7.07-7.42,7.07c-13.32,0-26.64-0.01-39.95-0.02
		c-0.21-1.62-0.12-3.35-0.68-4.84c-1.72-4.55,0.76-6.53,4.41-8.14c1.3-0.57,2.43-1.33,3.39,0.2c1.2,1.92-1.68,1.51-1.75,3.4
		c3.23-2.4,5.83,0.8,8.85,0.44c0.39-0.31,0.81-0.39,1.28-0.21c6.63,2.99,8,2.68,11.67-2.88c-1.51-1.12-2.67,1.15-3.98,0.44
		c1.56-4.04,2.28-7.86,8.9-6.53c4.65,0.93,9.6-2.72,14.22-4.88c0.92-0.56,1.9-0.94,3.01-0.84
		C176.28,451.08,176.6,451.06,176.92,450.97z"/>
	<path class="st57" d="M310.89,396.17c0.96-0.79,1.92-1.57,2.88-2.36c0.42-0.68,0.74-1.42,1.07-2.15c0-0.2,0.02-0.39,0.03-0.59
		c3.37-3.71,8.91-3.42,12.76-6.7c-3.7-0.96-6.53,1.5-9.78,1.57c-0.41-0.28-0.99-0.36-1.1-0.98c7.19-2.75,14.13-6.38,22.46-6.29
		c-4.07,2.05-7.28,4.44-7.87,9.25c-0.1,0.79-2.42,1.47-3.8,1.89c-2.19,0.67-3.89,1.72-4.46,4.09c0.4,1.65,1.07,3.23,1.21,4.94
		c0.03,0.45-0.12,0.83-0.44,1.15c-2.58,0.68-1.51-2.61-3.65-3.13c0.5,2.43,1.38,5.09-1.95,5.71c-2.75,0.51-6,3.18-7.89-1.44
		c-0.06-0.13-0.93,0.07-1.43,0.11c-0.31-0.32-0.44-0.71-0.41-1.15c0.31-1.19,1.79-1.63,1.92-2.94
		C310.43,396.75,310.58,396.42,310.89,396.17z"/>
	<path class="st4" d="M233.91,371.98c2.84,4.37,4.31,9.06,4.32,14.37c0,3.22,1.01,6.44,1.57,9.66c-0.66,0.32-1.32,0.64-1.99,0.96
		c-2.8-3.5-8.34-5.28-12.34-2.98c-3.97,2.28-8.76,3.16-11.92,6.82c-0.44,0.11-0.61-0.04-0.49-0.49c4.05-9.28,7.76-11.31,19.66-10.1
		c3,0.31,4.02,0.29,3.55-3.32c-0.63-4.78-1.77-9.36-3.21-13.92C233.19,372.53,233.48,372.19,233.91,371.98z"/>
	<path class="st58" d="M329.75,391.78c3.17-1.62,6.38-3.12,9.89-3.87c1.22-0.54,1.81,0.19,2.3,1.13c0.94,1.91,1.48,3.24-1.46,4.3
		c-3.79,1.36-7.23,3.09-10.62-0.53C329.26,392.53,329.22,392.18,329.75,391.78z"/>
	<path class="st59" d="M149.82,463.27c1.45-0.38,1.68-1.92,2.64-2.78c1.01-0.9,1.83,0.1,2.72,0.28c0.87,0.18,0.89,0.93,0.64,1.54
		c-1.17,2.79-2.62,5.57-5.76,6.34c-3.02,0.74-6.19,0.83-7.98-2.65c1.86-1.56,4.11-0.86,6.21-1.07
		C148.8,464.38,149.31,463.83,149.82,463.27z"/>
	<path class="st60" d="M329.75,391.78c0.04,0.35,0.07,0.69,0.11,1.04c0.8,3.41,0.58,6.17-3.95,6.16c-0.74-0.5-1.49-1.14-2.2,0.04
		c-1.01-1.6-1.75-3.24-0.64-5.11C325.3,393.19,327.52,392.48,329.75,391.78z"/>
	<path class="st61" d="M295.91,405.25c2.91-1.12,5.83-2.25,8.74-3.37c1.28-0.28,1.64,0.32,1.41,1.48c0.12,3.29-1.99,4.65-5.03,5.63
		c0.1-2.99-1.21-4.11-4.01-2.92C296.04,406.62,295.95,405.97,295.91,405.25z"/>
	<path class="st14" d="M295.91,405.25c0.37,0.27,0.74,0.55,1.11,0.82c-1.12,5.28-3.23,5.94-8.87,2.54
		C290.6,406.91,293.27,406.12,295.91,405.25z"/>
	<path class="st62" d="M171,350.06c-1.35-2.53-4.06-3.6-6.34-5.91c3.09-0.56,5.55,0.2,7.69,1.8c1.67,1.24,1.16,2.79-0.1,4.15
		C171.83,350.09,171.42,350.07,171,350.06z"/>
	<path class="st63" d="M341.94,389.04c-0.77-0.38-1.54-0.76-2.3-1.13c2.31-1.21,4.49-2.75,7.25-2.8l-0.1-0.12
		c0.06,0.83,0.21,1.66,0.15,2.47c-0.07,1.13,0.1,2.83-0.53,3.25c-1.59,1.07-1.94-1.15-3-1.68
		C343.02,388.83,342.44,389.03,341.94,389.04z"/>
	<path class="st18" d="M184.99,411.26c0.74,0.29,1.48,0.57,2.22,0.86c-1.72,0.88-1.71,1.83-0.58,3.4c0.63,0.87,2.71,2.44,0.36,3.52
		c-2.1,0.96-2.13-1.48-2.82-2.55c-0.62-0.95-0.8-2.19-2.16-2.45c-0.59,0.42-1.11,0.35-1.58-0.21
		C181.96,412.97,183.48,412.12,184.99,411.26z"/>
	<path class="st64" d="M346.89,385.11c1.68-0.39,3.29-4.3,5.04-0.18c0.69,1.61,2.36,3.89,0.02,4.94c-2.68,1.2-2.22-2.07-3.01-3.35
		c-0.59-0.96-1.05-1.55-2.16-1.52C346.78,384.99,346.89,385.11,346.89,385.11z"/>
	<path class="st65" d="M209.94,361.86c-3.41-0.72-6.87-1.29-9.99-3.01c-0.07-1.09,0.45-1.35,1.41-1.01c3.32,0.29,6.1,2.66,9.55,2.46
		C210.59,360.82,210.26,361.34,209.94,361.86z"/>
	<path class="st66" d="M196.84,448.79c-2.22,0.99-1.66-3.34-4.01-2.1c-0.71-0.26-1.14-0.68-0.93-1.51c1.67-0.4,3.35-0.81,5.02-1.21
		c0.28,0.24,0.38,0.49,0.31,0.75c-0.08,0.27-0.16,0.4-0.24,0.4C196.94,446.35,196.89,447.57,196.84,448.79z"/>
	<path class="st67" d="M135.79,445.92c0,2.76,0,5.52,0,8.28c-0.89-3.38-2.01-6.7-1.67-10.24
		C135.89,443.58,135.12,445.36,135.79,445.92z"/>
	<path class="st68" d="M135.79,445.92c-0.56-0.65-1.12-1.3-1.67-1.95c-0.49-2.37-0.47-4.55,2.44-5.75
		C136.3,440.82,136.04,443.37,135.79,445.92z"/>
	<path class="st69" d="M209.96,439.78c-2.1,2.14-4.52,3.19-7.53,2.19C204.51,439.78,207.14,439.42,209.96,439.78z"/>
	<path class="st70" d="M148.29,464.94c-1.75,2.2-4.14,0.73-6.21,1.07c-0.41-0.03-0.81-0.06-1.22-0.08
		C143.08,463.7,145.52,463.05,148.29,464.94z"/>
	<path class="st71" d="M302.94,391.04c-1.9,1.03-3.79,2.13-6.1,1.77c-0.25-0.19-0.33-0.38-0.25-0.56c0.09-0.18,0.17-0.28,0.26-0.28
		c0.97-1.48,2.73-1.13,4.08-1.74C301.51,390.7,302.48,390.24,302.94,391.04z"/>
	<path class="st72" d="M296.85,391.96c0.05,0.28,0.05,0.56-0.01,0.84c-1.24,1.72-3.28,1.54-5.01,2.07
		c-0.41-0.36-0.82-0.72-1.24-1.08C292.18,391.5,295.06,393.59,296.85,391.96z"/>
	<path class="st73" d="M302.94,391.04c-0.67-0.27-1.34-0.55-2.01-0.82c2.18-0.21,4.05-2.63,7.3-0.68
		C306.04,390.16,304.49,390.6,302.94,391.04z"/>
	<path class="st74" d="M173.49,417.17c-1.56,1.34-2.83,0.48-4.92,0.48C170.67,415.77,171.94,415.57,173.49,417.17z"/>
	<path class="st75" d="M215.88,437.87c-1.61,1.34-3.22,2.69-5.43,1.11c1.57-1.38,3.44-1.88,5.49-1.87c0.23,0.19,0.3,0.36,0.21,0.53
		C216.06,437.79,215.97,437.87,215.88,437.87z"/>
	<path class="st35" d="M310.89,396.17c0.04,0.28,0.03,0.56-0.03,0.84c0.32,2.23-2.6,1.59-2.9,3.27c-0.46,0.17-0.89,0.11-1.26-0.22
		C306.25,397.67,306.25,397.67,310.89,396.17z"/>
	<path class="st52" d="M191.9,445.18c0.31,0.5,0.62,1.01,0.93,1.51c-1.94,0.69-3.78,1.8-5.98,1.29
		C188.06,446.21,190.19,446.07,191.9,445.18z"/>
	<path class="st76" d="M132.71,426.88c-0.66,1.39-1.31,2.77-2.42,5.12c-0.69-3.45,0.51-5.14,1.74-6.82
		C132.25,425.74,132.48,426.31,132.71,426.88z"/>
	<path class="st53" d="M307.91,393.24c2.13-1.31,4.21-2.8,6.95-2.17c0,0-0.02-0.13-0.02-0.13c0.69,2.11-1.4,1.31-2.08,1.99
		c-1.64,0.32-3.27,0.63-4.91,0.95C307.87,393.67,307.89,393.46,307.91,393.24z"/>
	<path class="st72" d="M226.98,433.95c-1.76,0.94-3.32,2.92-5.6,1.03C223.05,433.56,224.81,432.64,226.98,433.95z"/>
	<path class="st77" d="M314.2,387.2c-1.63,0.94-3.28,1.84-5.63,1.48c0.9-2.3,2.82-2.04,4.34-2.49
		C313.37,386.48,314.02,386.54,314.2,387.2z"/>
	<path class="st78" d="M196.98,445.12c-0.02-0.38-0.04-0.77-0.06-1.15c1.45-1.39,3.06-2.02,4.98-0.97
		C200.59,444.46,198.76,444.73,196.98,445.12z"/>
	<path class="st18" d="M139.08,424.03c-0.38-0.29-0.75-0.58-1.13-0.88c2.34-0.39,4.65-0.55,6.85,0.88
		C142.9,424.03,140.99,424.03,139.08,424.03z"/>
	<path class="st31" d="M183.2,450.12c-1.82,0.83-3.5,2.65-5.71,0.84c1.49-0.62,2.97-1.24,4.46-1.85
		C182.39,449.42,183.02,449.49,183.2,450.12z"/>
	<path class="st79" d="M242.98,428.03c-1.14,1.16-2.62,1.51-4.14,1.78c-0.32-0.54-0.64-1.07-0.96-1.61
		c1.32-0.45,2.64-0.89,3.96-1.34C242.22,427.26,242.6,427.65,242.98,428.03z"/>
	<path class="st80" d="M215.88,437.87c0.05-0.25,0.06-0.51,0.06-0.76c1.32-1.8,3.09-1.81,4.99-1.22
		C219.61,437.46,217.88,438,215.88,437.87z"/>
	<path class="st81" d="M306.7,400.06c0.48-0.06,0.95-0.12,1.43-0.18l0.45-0.17l0.3,0.38c0.02,0.39,0.03,0.78,0.05,1.16
		c-0.96,0.7-1.91,1.41-2.87,2.11c-0.47-0.49-0.94-0.99-1.41-1.48C304.86,400.74,306.69,401.42,306.7,400.06z"/>
	<path class="st82" d="M185.1,351.04c-0.06-2.35-0.12-4.69-0.18-7.04c2.08,2.08,1.19,4.61,1.07,7.03c0,0-0.44,0.02-0.44,0.02
		L185.1,351.04z"/>
	<path class="st83" d="M312.76,392.93c0.3-1.07,2.06-0.62,2.08-1.99c0.77-0.03,1.9-0.36,1.85,0.81c-0.08,1.7-1.88,1.44-2.92,2.06
		C313.43,393.51,313.09,393.22,312.76,392.93z"/>
	<path class="st7" d="M314.2,387.2c-0.43-0.34-0.86-0.67-1.29-1.01c1.28-0.41,2.56-0.82,3.84-1.24c0.37,0.33,0.73,0.66,1.1,0.98
		C316.84,386.98,315.5,387.02,314.2,387.2z"/>
	<path class="st84" d="M180.44,413.83c0.53,0.07,1.05,0.14,1.58,0.21c-1.38,1.17-2.98,1.74-5.14,2.04
		C177.76,414.25,178.94,413.78,180.44,413.83z"/>
	<path class="st85" d="M158.93,346.07c1.32,1.52,3.8,0.11,4.99,1.97c0,0,0.09-0.05,0.09-0.05c-1.63,0.92-3.31,0.6-4.99,0.22
		C158.99,347.49,158.96,346.78,158.93,346.07z"/>
	<path class="st86" d="M307.91,393.24c0.08,0.22,0.06,0.43-0.06,0.64c-0.45,1.39-1.64,1.19-2.71,1.25
		c-0.61,0.38-1.15,0.29-1.61-0.26C304.72,393.6,306.31,393.42,307.91,393.24z"/>
	<path class="st37" d="M175.95,451.02c-0.75,1.2-1.91,0.92-3.01,0.84C173.79,451.05,173.93,447.65,175.95,451.02z"/>
	<path class="st35" d="M142.74,394.02c-1.54-2.02-1.4-4.03,0.06-6.02C142.78,390.01,142.76,392.01,142.74,394.02z"/>
	<path class="st87" d="M303.53,394.87c0.54,0.09,1.07,0.17,1.61,0.26c-1.57,1.01-3.17,1.92-5.32,1.72
		C300.81,395.37,302.02,394.82,303.53,394.87z"/>
	<path class="st88" d="M159.02,348.21c1.66-0.07,3.33-0.15,4.99-0.22C162.44,350.08,160.75,349.54,159.02,348.21z"/>
	<path class="st27" d="M183.2,450.12c-0.42-0.34-0.83-0.68-1.25-1.01c1.28-0.47,2.6-1.62,3.79,0.15
		C184.9,449.54,184.05,449.83,183.2,450.12z"/>
	<path class="st89" d="M228.93,396.99c-0.63-0.37-1.03-1.06-0.46-1.51c1.15-0.89,2.39-0.7,3.42,0.4
		C230.98,396.45,229.26,394.88,228.93,396.99z"/>
	<path class="st90" d="M323.71,399.01c0-0.93,0-1.87,0-2.94c1.74,0.43,1.39,2.08,2.2,2.9c-0.69,0.34-1.38,0.68-2.07,1.02
		C323.79,399.67,323.75,399.34,323.71,399.01z"/>
	<path class="st91" d="M171.61,334.22c-3.49-1.07-7.04-1.68-10.71-1.33c-0.44-0.16-0.78-0.45-1-0.86c4.65-3.16,8.82-1.02,12.98,1.19
		C172.98,334.21,172.62,334.63,171.61,334.22z"/>
	<path class="st92" d="M233.91,371.98c-0.29,0.34-0.57,0.68-0.86,1.02c-1.07-2.61-2.14-5.21-3.21-7.82
		c-0.44-0.54-0.38-1.01,0.18-1.42c0.3,0.04,0.6,0.1,0.9,0.19c2.06,0.67,1.29,2.73,2,4.07C233.25,369.33,233.58,370.66,233.91,371.98
		z"/>
	<path class="st93" d="M196.15,319.94c2.57,0.26,5.2-1.25,7.74,0.23c0.27,0.28,0.36,0.55,0.25,0.81c-0.1,0.26-0.21,0.39-0.3,0.39
		c-2.94-0.5-5.98,0.65-8.88-0.51C194.89,319.95,195.12,319.43,196.15,319.94z"/>
	<path class="st94" d="M184.89,342.93c-1.31-1.32-2.62-2.64-3.93-3.95c-0.16-0.92,0-1.49,1.12-1.03
		C184.34,338.86,185.86,340.19,184.89,342.93z"/>
	<path class="st95" d="M186.22,317.19c2.32,0.43,4.74,0.5,6.84,1.79c-0.47,0.83-1.51,0.37-2.1,0.93
		C189.5,318.8,186.52,320.34,186.22,317.19z"/>
	<path class="st96" d="M230.02,363.76c-0.06,0.47-0.12,0.95-0.18,1.42c-1.19-1.44-1.72-3.15-2.04-4.96c0.08-0.5,0.15-1.01,0.23-1.51
		c1.55-0.02,1.28,1.48,1.89,2.25C229.96,361.89,229.99,362.82,230.02,363.76z"/>
	<path class="st97" d="M182.08,337.94c-0.37,0.34-0.75,0.69-1.12,1.03c-1.4-0.57-3.07-0.87-3.03-2.93
		C179.5,336.26,180.97,336.7,182.08,337.94z"/>
	<path class="st98" d="M213.06,400.33c0.23,0.1,0.39,0.26,0.49,0.49c-0.2,2.19-1.59,1.42-2.68,0.98c-0.52-0.21-1.17-0.91-0.57-1.48
		C211.11,399.55,212.14,399.95,213.06,400.33z"/>
	<path class="st99" d="M201.36,357.84c-0.47,0.34-0.94,0.68-1.41,1.01c-1.11-0.44-2.51-0.42-3.26-2.46
		C198.47,357.11,200.11,356.51,201.36,357.84z"/>
	<path class="st100" d="M171.61,334.22c0.42-0.33,0.85-0.67,1.27-1c1.14,0.61,2.29,1.22,3.43,1.82
		C174.34,337.05,173.14,334.69,171.61,334.22z"/>
	<path class="st101" d="M159.89,332.02c0.33,0.29,0.67,0.58,1,0.86c-4.27,1.19-2.84-1.86-2.86-3.83c0.26,0,0.52,0,0.78,0
		C159.32,329.99,158.36,331.46,159.89,332.02z"/>
	<path class="st102" d="M190.97,319.9c0.7-0.31,1.4-0.62,2.1-0.93c1.12,0.04,2.28-0.07,3.09,0.97c-0.4,0.31-0.8,0.61-1.2,0.92
		C193.63,320.54,192.3,320.22,190.97,319.9z"/>
	<path class="st103" d="M203.84,321.37c0.02-0.4,0.03-0.8,0.05-1.2c1.39,0.48,3.61,0.11,2.86,2.79
		C205.78,322.44,204.81,321.9,203.84,321.37z"/>
	<path class="st7" d="M232.92,368.01c-0.67-1.36-1.33-2.71-2-4.07c1.2-1.93,2.78-3.87,5.12-2.45c2,1.22,0.34,3.34-0.17,4.94
		C235.5,367.65,232.9,365.5,232.92,368.01z"/>
	<path class="st104" d="M262.9,384.14c-0.32,0.56-0.64,1.12-0.95,1.67c-2.99-0.19-6.32,1.74-9.72-1.67
		C256.37,384.14,259.63,384.14,262.9,384.14z"/>
	<path class="st7" d="M229.93,360.96c-0.63-0.75-1.26-1.5-1.89-2.25c0-0.89,0-1.79,0.01-2.68
		C231.25,356.68,232.29,358.17,229.93,360.96z"/>
	<path class="st105" d="M259.88,388.14c0.02,0.34,0.04,0.68,0.05,1.01c-0.87,1.53-2.33,1.85-3.92,1.93
		c-0.98,0.56-1.14,0.02-1.06-0.81C256.6,389.56,258.24,388.85,259.88,388.14z"/>
	<path class="st106" d="M254.96,390.27c0.35,0.27,0.71,0.54,1.06,0.81c-1.54,0.76-3.08,1.52-5.19,2.57
		C251.46,390.56,253.67,391.08,254.96,390.27z"/>
	<path class="st62" d="M247.69,393.54c0.54,1.54-0.96,2.26-1.17,3.43c-0.4-0.44-1.05-0.84-1.14-1.33
		C245.06,393.86,246.36,393.7,247.69,393.54z"/>
	<path class="st107" d="M209.06,263.03c0.97,0.63,1.94,1.26,2.91,1.89c0.91,1.3,0.4,2.33-0.61,3.26c-3.01,0.32-6.11,1.07-9.02,0.07
		c-2.44-0.84-1.42,1.57-2.38,2c-3.32,0.64-2.47-3.76-5.4-3.68c2.87-2.85,5.43-4.91,9.21-3.53
		C205.54,262.37,207.3,262.38,209.06,263.03z"/>
	<path class="st108" d="M210.91,268.09c0.35-1.06,0.71-2.11,1.06-3.17c3.57-0.87,4.82,1.65,6.1,4.15c-0.08,1-0.15,1.99-0.23,2.99
		c-3.03,2.24-6.85,1.6-10.17,2.79c-0.88,0.31-1.64,0.26-1.68-0.89c-0.03-0.9,1.03-0.61,1.32-0.96c0.73-0.86,4.29,2.04,2.56-1.9
		C212.18,270.78,209.45,268.71,210.91,268.09z"/>
	<path class="st109" d="M186.04,265.09c-1.95-0.85-3.91-1.7-6.44-2.8c4.05-0.46,7.42-0.94,10.7,0.67c1.52,0.75,2.58,2.27,2.06,3.53
		c-0.88,2.14-2.78,3.88-5.17,4.21c-1.83,0.25-0.95-1.66-1.28-2.6C185.89,267.09,187.03,266.14,186.04,265.09z"/>
	<path class="st101" d="M210.91,268.09c-0.52,0.95,3.05,3.31-1.05,3.02c-3.28-0.41-6.53-1.25-9.89-0.86
		c0.02-1.4-1.23-2.83,0.43-4.48C203.09,269.92,207.69,265.34,210.91,268.09z"/>
	<path class="st110" d="M196.91,283.02c-4.71,2.21-6.73,1.59-8.18-2.49c-0.39-0.94-0.07-1.42,0.95-1.41
		c0.69,1.52,2.11,0.54,3.14,0.92c2.03-0.69,4.04-0.68,6.08-0.01c-0.27,2.26-1.82,1.47-2.96,1.56c-0.4,0.11-0.72,0.43-1.16,0.49
		c-0.06,0.01-0.05,0.18,0,0.22c0.2-0.22,0.42-0.41,0.71-0.57C196.46,281.65,197.23,281.75,196.91,283.02z"/>
	<path class="st111" d="M194.9,282.05c0.6-1.24,2.11-0.62,3.57-2.02c-2.29,0-3.97,0-5.65,0c2.03-2.08,5.15,0.33,7.16-1.7
		c1.03-1.04,0.98-1.09,1.69,0.8c-0.61,0.9,0.3,2.19-0.75,2.98c-1.43-0.12-2.37,1.95-4.01,0.91c-0.44-0.78-1.18-0.92-1.98-0.92
		L194.9,282.05z"/>
	<path class="st112" d="M184.97,278.1c-2.06,2.35-1.99,5.75-4.12,8.13c-0.88-3.33-1.27-6.47,2.7-8.24
		C184.05,277.61,184.52,277.65,184.97,278.1z"/>
	<path class="st6" d="M195.19,286.94c1.22,0.78,2.43,1.56,3.65,2.34c0.12,0.81,0.06,1.42-1,0.83c-3.3-0.39-6.59-0.78-9.89-1.17
		C189.59,285.45,192.79,287.65,195.19,286.94z"/>
	<path class="st6" d="M184.92,288.94c-1.03,0.23-2.92,0.98-1.52-1.19c2.11-3.25,5.39-2.48,8.51-1.67
		C190.36,288.93,186.8,286.88,184.92,288.94z"/>
	<path class="st21" d="M184.92,288.94c1.39-3.27,5.17-0.65,6.99-2.85c1.19-0.08,2.41-0.28,3.28,0.85c-2.09,1.84-5.12,0.27-7.24,2
		C186.95,288.94,185.93,288.94,184.92,288.94z"/>
	<path class="st113" d="M186.04,265.09c0.56-0.18,1.35-0.81,1.65-0.01c0.59,1.57-0.58,2.36-1.78,3.01
		c-0.66-0.38-1.32-0.76-1.98-1.13c-0.5-0.73-2.38,0.14-1.95-1.68C183.3,264.37,184.74,266.33,186.04,265.09z"/>
	<path class="st111" d="M184.97,278.1c-0.48-0.04-0.95-0.08-1.43-0.11c2.82-3.8,4.32-0.44,6.15,1.13c-0.32,0.47-0.63,0.94-0.95,1.41
		C187.58,279.56,186.9,277.86,184.97,278.1z"/>
	<path class="st114" d="M181.98,265.28c0.65,0.56,1.3,1.12,1.95,1.68c-1.41,0.07-2.82,0.14-4.31,0.21
		C179.8,265.45,180.72,265.13,181.98,265.28z"/>
	<path class="st115" d="M197.85,290.11c0.33-0.28,0.66-0.56,1-0.83c0.9-0.06,2.05-0.62,2.27,0.85c0.08,0.51-0.25,1.52-0.53,1.58
		C199.31,291.95,198.6,290.93,197.85,290.11z"/>
	<path class="st110" d="M200.91,282.11c0.03-1.05-0.19-2.16,0.75-2.98c0.38,1.15,1.68,2.08,0.9,3.46
		C202.5,282.71,201.49,282.28,200.91,282.11z"/>
	<path class="st116" d="M209.06,263.03c-1.76,0-3.52,0.01-5.28,0.01C205.54,261.84,207.3,261.68,209.06,263.03z"/>
	<path class="st117" d="M138.79,344.95c-0.37,1.52-0.75,3.04-1.33,5.41c-1.03-2.93-1.1-4.79,0.35-6.48
		C138.43,343.97,138.49,344.58,138.79,344.95z"/>
	<path class="st118" d="M138.79,344.95c-0.33-0.35-0.65-0.71-0.98-1.06c0.26-1.67-0.28-3.59,1.98-5.16
		C139.41,341.09,139.1,343.02,138.79,344.95z"/>
	<path class="st119" d="M174.01,467.82c-0.08-1.86-0.15-3.72-0.23-5.58c-0.18-0.96-0.95-2.19,1-2.18l0.17-0.11
		c1.65,0.92,1.5,2.49,1.47,4.02c0,1.46,0,2.91,0,4.37c0.14,1.59,0.29,3.18,1.44,4.45c2.73,2.26,5.96,0.72,8.93,1.15
		c3.01,0.44,6.19-0.85,9.09,0.83c-0.66,0.13-1.32,0.26-1.97,0.39c-2-0.02-4-0.04-6-0.06c-3.33,0-6.67,0-10,0
		c-1.61-0.14-3.29-0.04-3.1-2.56C174.91,470.96,174.98,469.27,174.01,467.82z"/>
	<path class="st120" d="M262.89,475.06c-1.67-0.02-3.33-0.04-5-0.05c-3.24-0.8-6.77,0.93-9.88-1.09c1.87,0.47,2.78-1.12,4.07-1.89
		c2.22,2.52,3.89,1.07,5.46-0.78c3.06-3.6,6.09-7.23,9.11-10.82c2.02,1.95-4.94,6.63,2.39,7.2c-1,1.66-1.99,3.3-2.97,4.91
		c0.2,1.97,3.7-2.61,2.84,1.48C267.1,475.48,264.85,474.44,262.89,475.06z"/>
	<path class="st103" d="M251.71,458.99c-1.42-2.25-0.19-5.47-2.66-7.33c2.18,0.61,1.25-1.67,2.66-2.71
		C251.71,452.55,251.71,455.77,251.71,458.99z"/>
	<path class="st121" d="M258.93,456.04c-0.26-0.72-0.06-1.65-0.98-2.05c0.39-1.34,0.42-2.94,2.63-3.38
		C260.58,452.72,260.12,454.47,258.93,456.04z"/>
	<path class="st122" d="M246.97,473.82c-1.75,1.91-4.07,1.07-6.07,0.98c-7.66-0.33-15.4,1.12-23-0.85c-0.45-2.26,1.66-2.74,2.82-3.6
		c7.05-5.26,14.21-10.38,21.37-15.5c2.73-1.95,4.6-1.02,4.72,2.52C247,462.85,246.93,468.34,246.97,473.82z"/>
	<path class="st89" d="M197.07,458.87c0.77-2.98-2.46-5.89-0.15-8.9c1.2,2.51,1.06,5.22,1.12,7.89
		C198.44,458.9,197.97,459.08,197.07,458.87z"/>
	<path class="st123" d="M197.07,458.87c0.32-0.34,0.64-0.67,0.97-1.01c0.72,0.95,0.9,2.02,0.7,3.18c-1.38,1.74,1.32,4.61-1.63,5.91
		C197.09,464.25,197.08,461.56,197.07,458.87z"/>
	<path class="st124" d="M197.1,466.95c1.79-1.63-0.15-4.28,1.63-5.91c0.22,2.75,0.74,5.52-0.6,8.16c-0.68-0.1-0.74-0.75-1.06-1.18
		C197.08,467.66,197.09,467.3,197.1,466.95z"/>
	<path class="st125" d="M197.07,468.02c0.35,0.39,0.71,0.78,1.06,1.18c-0.08,1.22-0.17,2.44-0.25,3.66
		c-0.9,0.11-2.11,0.61-1.79-1.12C196.32,470.48,196.73,469.26,197.07,468.02z"/>
	<path class="st126" d="M177.85,472.79c-3.72,0.2-1.18-2.51-1.76-3.78c0.26-0.5,0.56-0.53,0.92-0.1
		C177.3,470.2,177.58,471.5,177.85,472.79z"/>
	<path class="st127" d="M176.1,463.88c-0.38-1.31-0.77-2.63-1.15-3.94c0.39,0,0.78,0,1.17,0c1.42,1.11,0.62,2.61,0.69,3.96
		C176.56,464.41,176.32,464.4,176.1,463.88z"/>
	<path class="st128" d="M176.1,463.88c0.24,0.03,0.47,0.03,0.71,0.02c0.07,1.67,0.14,3.34,0.21,5.01c-0.31,0.05-0.61,0.08-0.92,0.1
		C176.1,467.3,176.1,465.59,176.1,463.88z"/>
	<path class="st121" d="M174.77,460.05c-0.33,0.73-0.66,1.46-1,2.18c-1.14-1.54-1.06-3.26-0.83-5.19
		C174.43,457.63,174.32,459.02,174.77,460.05z"/>
	<path class="st104" d="M308.88,400.08c-0.21-0.2-0.46-0.27-0.75-0.21c-0.76-2.54,2.43-1.34,2.73-2.87
		C314.21,400.61,308.94,398.67,308.88,400.08z"/>
	<path class="st111" d="M194.93,282.09c-1.29,1.54-2.34,0.89-3.52-0.21c1.43-1.49,2.4-0.08,3.49,0.17
		C194.9,282.05,194.93,282.09,194.93,282.09z"/>
</g>
</svg>
