<svg id="Layer_1" data-name="Layer 1" xmlns="http://www.w3.org/2000/svg" viewBox="0 0 216.37 272.73"><defs><style>.cls-1{fill:#221f20;}.cls-2{fill:#0e0e0e;}.cls-3{fill:#080808;}.cls-4{fill:#201f1f;}.cls-5{fill:#1c1a1b;}.cls-6{fill:#181617;}.cls-7{fill:#1b1a1a;}.cls-8{fill:#1b191a;}.cls-9{fill:#181717;}.cls-10{fill:#181819;}.cls-11{fill:#151414;}.cls-12{fill:#050304;}.cls-13{fill:#100e0f;}.cls-14{fill:#111010;}.cls-15{fill:#010101;}.cls-16{fill:#050404;}.cls-17{fill:#121112;}.cls-18{fill:#050303;}.cls-19{fill:#030203;}.cls-20{fill:#020202;}.cls-21{fill:#030202;}.cls-22{fill:#100f0f;}.cls-23{fill:#040303;}.cls-24{fill:#0d0809;}.cls-25{fill:#0f0c0d;}.cls-26{fill:#0f0b0c;}.cls-27{fill:#020101;}.cls-28{fill:#030303;}.cls-29{fill:#020201;}.cls-30{fill:#3b3b3b;}.cls-31{fill:#090607;}.cls-32{fill:#080606;}.cls-33{fill:#0a0607;}.cls-34{fill:#0d080a;}.cls-35{fill:#0f0a0c;}.cls-36{fill:#2b2828;}.cls-37{fill:#060405;}.cls-38{fill:#272525;}</style></defs><title>grammy</title><path class="cls-1" d="M311.67,531.12c-5.86,1.91-11.57.4-17.3-.74.72-.64,1.6-.4,2.43-.42a3,3,0,0,0-2.42.42,10.6,10.6,0,0,1-5.28-.72c.52-.71,1.32-.32,1.94-.5a9.64,9.64,0,0,1-2.77-.17q-15.22-2.09-30.41-4.38c-2.53-.38-5.1-.49-7.62-1a12.37,12.37,0,0,1-3.78-.47c-11.75-1.68-23.47-3.57-35.26-4.94a2.06,2.06,0,0,0-1.73.24,33.37,33.37,0,0,1-9.11-1.36,1.89,1.89,0,0,1,2.67.08c-1.37-1.37-4.3.64-4.56-2.4l24-45.12c1.15-2.17,2.31-4.33,3.45-6.49,3.67-7,3.76-7,11.87-4.64-.56.6-1.13.58-1.4.39a9.31,9.31,0,0,0,4.12-.18c2.53.39,5.15.24,7.56,1.3a1.43,1.43,0,0,1-1.69.32,10.2,10.2,0,0,0,4.48-.12c2.52.45,5.16.22,7.59,1.27-.72.59-1.44.71-1.89.33a7,7,0,0,0,3.92-.19,4.61,4.61,0,0,1,3.19.56c-.23.48-.73.39-1.12.52.79-.13,1.68.26,2.38-.42a142.16,142.16,0,0,1,20.12,2.9c-.59.64-1.23.41-1.87.26a9.76,9.76,0,0,0,4.65-.07c2.28.56,4.73.14,6.92,1.23-.33.41-.7.65-1.19.23a.79.79,0,0,0,.72.28c1.05-.11,2.16.29,3.16-.31,3.95.25,7.86,1.24,11.85.69,1.17.71,2.34.23,3.2.32-.27.28-.76.06-1.23-.47,2.46-1,5.1-.87,7.66-1.26,3,.76,5.79-.67,8.71-.75,1.22,0,2.4-.53,3.65-.43a6.06,6.06,0,0,0,.74,0c-.21-.18-.56-.17-.71-.45a6.23,6.23,0,0,1,3.86-.63c1.1.67,2.23.2,3.35.25.49-.22-.31-.59-.08-.16.08.15,0,.22-.25.22-.6,0-1.24.15-1.7-.42a39.4,39.4,0,0,1,9.77-1.4c1.08.76,2.22.17,2.9.34a1.43,1.43,0,0,1-1.6-.43c5.9-1.45,12-1.78,17.95-2.74a10.63,10.63,0,0,0,4.47.13,1.46,1.46,0,0,1-1.68-.32,4.42,4.42,0,0,1,3.11-.61c1.22.65,2.42.17,3.33.28-.27.29-.79.05-1.29-.42a6,6,0,0,1,3.87-.64c.71.65,1.62.18,2.44.46-.37-.28-.93-.09-1.15-.57,1.93-.81,3.49-1.25,4.82,1.27,9.58,18.13,19.31,36.19,29,54.29a9.06,9.06,0,0,1,.46,1.36c-.16,1.86-1.65,2-3,2.13-4.63.49-9.2,1.53-13.86,1.78-1,.36-2.14,0-3.18.31.84-.08,1.71-.39,2.42.36a8.12,8.12,0,0,1-4.66.65c-1.36-.36-2.74.13-4.11,0-10.91,1.8-21.87,3.24-32.81,4.79a10.78,10.78,0,0,1-3.75.39c-8.41,1.2-16.77,2.78-24.83,3.38.59.25,1.86-.51,2.83.38a94.28,94.28,0,0,1-15.7,2.16c-1.15-.91-2.58,0-3.8-.5C309.48,530.94,310.73,530.23,311.67,531.12Z" transform="translate(-197.53 -259.3)"/><path class="cls-1" d="M305.6,415.76a52.13,52.13,0,0,1,10.33-1.43c1,.74,2.07.26,3.59.49-1.33-.31-2.32.27-3-.57,1.39-.82,2.93-.65,4.44-.73,1.23-.64,2.69.17,3.9-.6l.74,0c1.18.82,2.58,0,3.82.45-1-.34-2.27.31-3.22-.53a47.12,47.12,0,0,1,11.09-1.52c1,.89,2.15.27,2.49.37a3.12,3.12,0,0,1-2.48-.37,178.46,178.46,0,0,1,20.08-2.89,9,9,0,0,0,1.91.52,3,3,0,0,1,2.69,3c0,12.74.7,25.48-.35,38.19-1.69,1.64,1,1.08,1,1.9-4.08,1.44-8.41,1.48-12.63,2.12-1.36-.67-2.76-.08-3.42-.21-1.21.17-.72.84-.79.36,0-.2,0-.29.18-.32a2,2,0,0,1,2,.33,242.32,242.32,0,0,1-24.57,3.57c-1.19-.66-2.37-.22-3.26-.29.28-.3.78-.06,1.26.44a4.74,4.74,0,0,1-3.17.6c-1.22-.69-2.43-.23-3.65-.15-.48.28.21.56.08.08,0-.16,0-.22.24-.23a1.33,1.33,0,0,1,1.29.42c-2.42,1.06-5,1-7.58,1.33-5-.29-9.94-1.37-14.94-1.81-1.67-.09-3.26-1.31-5-.35-8.24-.93-16.5-1.75-24.61-3.58.49-.52,1-.65,1.25-.44-.88.07-2.06-.39-3.25.3-2.59-.29-5.21-.32-7.67-1.31.17.46-.23-.52.21-.34.27.12.4-.22.2-.21a10.56,10.56,0,0,1-4-.33c-1.69-.33-2-1.55-2.05-3,0-12.47,0-24.93,0-37.4,0-2.41,1.13-3.26,3.4-3.15.83,0,1.67.47,2.51,0a36,36,0,0,1,9.11,1.33c-.73.89-1.72.31-3.37.59,1.83-.21,2.93.26,3.89-.52,13.69,1.43,27.3,3.43,40.85,5.85-.78.85-1.71.37-3.12.33C303.51,416.16,304.6,416.54,305.6,415.76Z" transform="translate(-197.53 -259.3)"/><path class="cls-1" d="M299.72,291.82c-.72,6.8-3.3,13.06-5.85,19.28-6.4,15.61-15.14,29.75-27.07,41.79a56,56,0,0,1-12,9.42,31.38,31.38,0,0,1-5.31,2.51c-8.65,3-13.9.08-16.29-8.84a2,2,0,0,0,.28-1.33c0-.3.13-.61-.06-.89a.93.93,0,0,1-.38.9,5.56,5.56,0,0,1-.63-3.83,13.65,13.65,0,0,0,0-6.63,22.86,22.86,0,0,1,1.35-9.05c.39.33.62.67.12,1.09a.7.7,0,0,0,.35-.73,5.45,5.45,0,0,0-.24-2.37,126.57,126.57,0,0,1,27.88-54.83,2.84,2.84,0,0,0,2.2-2.46c6.06-7.11,13-13,22.11-15.89,6.05-1.94,11.27.46,13.64,6.55,2.58,6.65,2.07,13.52,1,20.36-.25,1.66-.14,3.46-1.15,5-.54-.57-.37-1.3-.42-2C299.32,290.54,299.13,291.27,299.72,291.82Z" transform="translate(-197.53 -259.3)"/><path class="cls-1" d="M367,371.38a39.14,39.14,0,0,1-1.74,25.55c-.59,1.4-1.27,2.17-3,1.86-4.34-.77-8.71-1.33-13.49-2,1.75-3.21,3.68-6,4.48-9.3a33.08,33.08,0,0,0,.59-6.58c.1-2.82-1-4.07-3.88-3.49.55-1.88,1.74-.93,2.73-1-9.29,1.29-18.55,3-27.49,3.69.87.08,2.24-.5,3.48.36-4.69.74-9.36,1.56-14.07,2.17a5,5,0,0,0-3.84,2.27c-2.34,3.36-4.83,3.68-8.38,1.5.05-.94-.41-1.38-1.34-1.35a3.63,3.63,0,0,1-1.43-3.18,30.89,30.89,0,0,0,.08-5.18c1.45-4.63,2.92-5.55,7.43-4.64.93.64,1.76,1.49,3,1.37,1.13,1.59,2.82.91,4.3,1,1.08.78,2.21.17,2.87.35a1.43,1.43,0,0,1-1.59-.44c9.6-2.14,19.39-3,29.08-4.47l4.56-.66c-7.28-8.71-17.37-9.94-26.79-12.56-4.13-2.22-8.84-1.76-13.21-2.88-1.26.29-2.52-.83-3.78,0-9.15-.73-18.28-1.75-28.32-1.54A146.16,146.16,0,0,0,305,300.83a210.09,210.09,0,0,0,15.66,20.26,210.71,210.71,0,0,0,28.54,26.1c6,4.6,11.64,9.5,15.13,16.38,1.17,2.3,2.37,4.58,2.54,7.22-.13.48,0-.18-.2.28s0,1.13-.2,1.67C366.75,372.32,366.47,371.7,367,371.38Z" transform="translate(-197.53 -259.3)"/><path class="cls-1" d="M268.74,394.43c.55-1.77,2.26-1.74,3.57-2A116.81,116.81,0,0,1,299.66,390a40.82,40.82,0,0,0,12.58,0c10.05.1,20.13,0,29.76,3.62a22.07,22.07,0,0,1,0,9.77,8.2,8.2,0,0,1-5.25,1.5l-.54-.07a34,34,0,0,0-3.91,0c-3.8,1-7.75.7-11.6,1.25-10.08-.45-20.15-.42-30.22,0-3.63-.71-7.41-.08-11-1.21a39.54,39.54,0,0,0-4.49-.06l-.56.05c-2.14-.19-4.38-.14-5.72-2.31A26.06,26.06,0,0,0,268.74,394.43Z" transform="translate(-197.53 -259.3)"/><path class="cls-2" d="M362.55,452c-.7-.38-1.87.6-2.25-.77,1.68-1,1.09-2.6,1.09-4,0-11.3-.06-22.61.09-33.92,0-2.66-.57-4.13-3.39-4.15l-.76-.8c5.8-1.54,5.8-1.54,5.8,4.26,0,12,0,24,0,36C363.09,449.76,363.74,451.07,362.55,452Z" transform="translate(-197.53 -259.3)"/><path class="cls-3" d="M254.56,408.47c-5.17,1.8-5.17,1.8-5.17,8.18,0,10.44.08,20.89-.06,31.33a3.89,3.89,0,0,0,2.28,4c.26.16.34.32.26.48s-.18.23-.26.23c-2.11.39-3.42.18-3.4-2.62.12-13.45,0-26.9.09-40.35,0-.76-.73-2.16,1.09-2.06,1.42,1,3.15-.09,4.59.7A.38.38,0,0,1,254.56,408.47Z" transform="translate(-197.53 -259.3)"/><path class="cls-4" d="M279,404c3.6,1.24,7.49.32,11.11,1.46,8.4-.8,16.82-.17,25.23-.32,1.92,0,3.9-.4,5.79.32L332.94,404a.65.65,0,0,1,.25.74c-.27.33-.72.45-1,.8l-.17.14-.19-.13c-2,.78-4.27-.28-6.28.66a198.91,198.91,0,0,1-39.19,0c-2.22-1.06-4.67.14-6.91-.7l-.26.13-.23-.18a1.21,1.21,0,0,1-.42-.74A1.16,1.16,0,0,1,279,404Z" transform="translate(-197.53 -259.3)"/><path class="cls-5" d="M250.13,522.91q18.6,2.61,37.21,5.23a4.12,4.12,0,0,1,1.24.68c.25.17.34.34.25.51s-.17.26-.26.26l-.74-.05c-1.26-.8-2.78,0-4.07-.64-9.05-.87-18-2.27-27-3.78-1.45-.91-3.17.09-4.64-.66l-.28.12-.25-.17c-.42-.56-1.18-.29-1.67-.69A.65.65,0,0,1,250.13,522.91Z" transform="translate(-197.53 -259.3)"/><path class="cls-6" d="M209.47,518.48c3.21-2.1,6.49-.2,9.62.13,9,.95,17.87,2.5,26.8,3.83.2,0,.36.31.54.47s.35.33.26.5-.17.25-.26.25c-8.7-.68-17.27-2.29-25.87-3.69-1.46-.94-3.2.06-4.69-.67l-1.23-.1c-1.28-.79-2.79,0-4.09-.64Z" transform="translate(-197.53 -259.3)"/><path class="cls-7" d="M353.64,524.38c4-1.48,8.29-1.3,12.42-2.09,6.9-1.31,13.9-2.07,20.86-3.07.45.83-.26,1-.73,1.39-9,1.6-18,3.1-27.07,3.86-1.51.72-3.26-.27-4.74.67l-.32.18-.35-.11-.33-.39Z" transform="translate(-197.53 -259.3)"/><path class="cls-8" d="M328.67,380.46l-3.65-.17,0-.47,28.19-4.21c-1.05,1.59-2.67.58-3.21,1.77C342.89,378.64,335.83,379.86,328.67,380.46Z" transform="translate(-197.53 -259.3)"/><path class="cls-9" d="M327.94,528.9l-3.87-.25v-.27l25.87-4a.61.61,0,0,1,.25.71c-.26.35-.7.46-1,.76C342.16,527.15,335.08,528.25,327.94,528.9Z" transform="translate(-197.53 -259.3)"/><path class="cls-10" d="M395.78,518.48c4.42-1.36,9.05-1.45,13.58-2.14a5.64,5.64,0,0,0,3.5-1.59c.73.93,2.1,2-.37,2.37-2,.33-4,1-6.11.7-1.24.65-2.71-.16-3.94.62l-1.26.11c-1.48.75-3.21-.26-4.66.67l-.74,0c-.25-.18-.34-.35-.25-.53S395.7,518.48,395.78,518.48Z" transform="translate(-197.53 -259.3)"/><path class="cls-11" d="M309.27,353.06c3.75.71,7.49,1.43,11.24,2.11,1,.18,2,.19,2.07,1.51l-13.3-2.22A.91.91,0,0,1,309.27,353.06Z" transform="translate(-197.53 -259.3)"/><path class="cls-12" d="M342,403.36c-.39-.24-1.23.08-.8-1a10.35,10.35,0,0,0,0-7.7c-.43-1.12.4-.8.78-1A9.29,9.29,0,0,1,342,403.36Z" transform="translate(-197.53 -259.3)"/><path class="cls-13" d="M293,457.94a70.51,70.51,0,0,1,15.51,2.14c-5.31,1-10.35-.87-15.51-1.5-.17-.14-.23-.29-.17-.43S293,457.94,293,457.94Z" transform="translate(-197.53 -259.3)"/><path class="cls-14" d="M331.3,464.49c.76.28,1.71-.24,2.7.87-5.31-.66-10,2.6-15.09.77C323,465.6,327.09,464.47,331.3,464.49Z" transform="translate(-197.53 -259.3)"/><path class="cls-15" d="M312.24,390a22.16,22.16,0,0,1-12.58,0A74.43,74.43,0,0,1,312.24,390Z" transform="translate(-197.53 -259.3)"/><path class="cls-16" d="M299.69,376.69a4.2,4.2,0,0,1-.08,5.18A5.92,5.92,0,0,1,299.69,376.69Z" transform="translate(-197.53 -259.3)"/><path class="cls-17" d="M198.47,514.8c.91,1.89,2.94,1.2,5.07,1.94l-3.18.38C199.14,516.82,196,518.13,198.47,514.8Z" transform="translate(-197.53 -259.3)"/><path class="cls-15" d="M268.74,394.43a11.31,11.31,0,0,1,0,8.08A33.6,33.6,0,0,1,268.74,394.43Z" transform="translate(-197.53 -259.3)"/><path class="cls-18" d="M386.19,520.61c.24-.46.48-.93.73-1.39,1.24.18,2.67-.52,3.69.76A8.92,8.92,0,0,1,386.19,520.61Z" transform="translate(-197.53 -259.3)"/><path class="cls-18" d="M232.42,344.2a7,7,0,0,1,0,6.63A23,23,0,0,1,232.42,344.2Z" transform="translate(-197.53 -259.3)"/><path class="cls-1" d="M279.45,405.56c2.3.21,4.74-.82,6.91.7A18.14,18.14,0,0,1,279.45,405.56Z" transform="translate(-197.53 -259.3)"/><path class="cls-14" d="M293,457.94v.64l-4.43-.66A3.31,3.31,0,0,1,293,457.94Z" transform="translate(-197.53 -259.3)"/><path class="cls-18" d="M309.27,353.06c0,.47,0,.94,0,1.4-1.36.48-2.49-.33-3.69-.68C306.63,352.57,308,353.23,309.27,353.06Z" transform="translate(-197.53 -259.3)"/><path class="cls-1" d="M325.55,406.22c2-1.47,4.18-.45,6.28-.66A14.4,14.4,0,0,1,325.55,406.22Z" transform="translate(-197.53 -259.3)"/><path class="cls-19" d="M250.85,460.26c-1.4,1.07-2.92.58-4.46.11l1.67-.31Z" transform="translate(-197.53 -259.3)"/><path class="cls-12" d="M260.47,461.67c-1.4,1.2-2.94.61-4.47.19l2.44-.33Z" transform="translate(-197.53 -259.3)"/><path class="cls-20" d="M287.82,465.42c-1.4,1.08-2.92.6-5.54.33l2.76-.52Z" transform="translate(-197.53 -259.3)"/><path class="cls-21" d="M326.15,412.81l3.8.25c-1.51.43-3,1.1-4.4-.17A.39.39,0,0,1,326.15,412.81Z" transform="translate(-197.53 -259.3)"/><path class="cls-22" d="M251.61,452.71V452H256c-.35,1.11-1.22.57-1.72.89Z" transform="translate(-197.53 -259.3)"/><path class="cls-23" d="M347.88,454.31l-2.43-.34c1.54-.4,3.07-1,4.47.18Z" transform="translate(-197.53 -259.3)"/><path class="cls-24" d="M311.67,531.12l-3.84-.26c1.52-.45,3.06-1.15,4.41.2l-.27.17Z" transform="translate(-197.53 -259.3)"/><path class="cls-20" d="M240.5,458.76c-1.4,1.11-2.91.58-4.44.15l1.72-.36Z" transform="translate(-197.53 -259.3)"/><path class="cls-20" d="M368.29,459.33l1.42.22c-1.41.48-2.82,1.05-4.21,0Z" transform="translate(-197.53 -259.3)"/><path class="cls-25" d="M264.08,275.85c-.3,2.42-.43,2.56-2.2,2.46Z" transform="translate(-197.53 -259.3)"/><path class="cls-26" d="M310.15,373.42c-1.78,1.23-2.12-.69-3-1.38C308.25,372.25,309.62,371.92,310.15,373.42Z" transform="translate(-197.53 -259.3)"/><path class="cls-27" d="M315.73,374.37l3.22.41c-2.1.48-3.36.82-4.5-.32Z" transform="translate(-197.53 -259.3)"/><path class="cls-1" d="M250.11,523.62a1.59,1.59,0,0,1,1.5.79,8.9,8.9,0,0,1-4.61-.68A3,3,0,0,1,250.11,523.62Z" transform="translate(-197.53 -259.3)"/><path class="cls-28" d="M373.44,458.58l2.37.45c-2,.41-3.26.77-4.41-.31Z" transform="translate(-197.53 -259.3)"/><path class="cls-15" d="M297.43,466.85c-.94,1.06-2.19.63-3.32.61-.54,0-.36-.39,0-.59a2.77,2.77,0,0,1,.67-.22Z" transform="translate(-197.53 -259.3)"/><path class="cls-15" d="M347.55,462.26l3.08.41c-2,.48-3.26.83-4.38-.32Z" transform="translate(-197.53 -259.3)"/><path class="cls-21" d="M336.48,463.75l3,.42c-2,.46-3.23.8-4.37-.31Z" transform="translate(-197.53 -259.3)"/><path class="cls-1" d="M252.14,524.46c1.56.1,3.25-.68,4.64.66A9.33,9.33,0,0,1,252.14,524.46Z" transform="translate(-197.53 -259.3)"/><path class="cls-1" d="M354.38,525.14c1.41-1.38,3.14-.57,4.74-.67A8.86,8.86,0,0,1,354.38,525.14Z" transform="translate(-197.53 -259.3)"/><path class="cls-23" d="M311.25,467.39l2.38.48c-2,.46-3.21.75-4.35-.33Z" transform="translate(-197.53 -259.3)"/><path class="cls-15" d="M316.1,458.75l-2.36-.48c2-.37,3.26-.76,4.4.36Z" transform="translate(-197.53 -259.3)"/><path class="cls-27" d="M321.31,458l-2.44-.5c2.06-.38,3.31-.72,4.44.35Z" transform="translate(-197.53 -259.3)"/><path class="cls-15" d="M262,454.2c1-1.13,2.33-.66,3.68-.57-.37.89-1.19.4-1.68.71Z" transform="translate(-197.53 -259.3)"/><path class="cls-20" d="M305.6,415.76c-1,1.35-2.34.58-3.6.31l3-.35A.35.35,0,0,1,305.6,415.76Z" transform="translate(-197.53 -259.3)"/><path class="cls-20" d="M316.47,414.25l4,.32c-2.16.61-3.41.9-4.55-.24A.35.35,0,0,1,316.47,414.25Z" transform="translate(-197.53 -259.3)"/><path class="cls-1" d="M349.2,525.86l.76-.76a5.54,5.54,0,0,1,3.55-.16l.2.27A8.22,8.22,0,0,1,349.2,525.86Z" transform="translate(-197.53 -259.3)"/><path class="cls-21" d="M264.19,409.87c-1,1.21-2.31.78-3.6.28l3.08-.35A.31.31,0,0,1,264.19,409.87Z" transform="translate(-197.53 -259.3)"/><path class="cls-1" d="M254,408.38c-1.56-.05-3.23.67-4.59-.7A9,9,0,0,1,254,408.38Z" transform="translate(-197.53 -259.3)"/><path class="cls-1" d="M332.19,405.55l.77-.81a4.8,4.8,0,0,1,3.38-.17l.43.29A8.28,8.28,0,0,1,332.19,405.55Z" transform="translate(-197.53 -259.3)"/><path class="cls-1" d="M279,404.74v.77a8.07,8.07,0,0,1-4.51-.69l.41-.27C276.24,404.4,277.62,404.1,279,404.74Z" transform="translate(-197.53 -259.3)"/><path class="cls-1" d="M396.52,519.22c1.39-1.35,3.09-.58,4.66-.67A9.18,9.18,0,0,1,396.52,519.22Z" transform="translate(-197.53 -259.3)"/><path class="cls-1" d="M215.87,519.3c1.58.07,3.29-.7,4.69.67A8.77,8.77,0,0,1,215.87,519.3Z" transform="translate(-197.53 -259.3)"/><path class="cls-29" d="M234,333.14c.82.73.58,1.69.55,2.59,0,.12-.24.22-.37.33-.14-.3-.27-.61-.41-.91Z" transform="translate(-197.53 -259.3)"/><path class="cls-21" d="M233.06,354.66l.37-2.07c.58,1.45.68,2.47-.21,3.39Z" transform="translate(-197.53 -259.3)"/><path class="cls-23" d="M378.6,457.83l2.21.42c-1.6.51-2.61.71-3.5-.31Z" transform="translate(-197.53 -259.3)"/><path class="cls-19" d="M264.92,462.33c-.79,1-1.82.83-3.5.44l2.24-.54Z" transform="translate(-197.53 -259.3)"/><path class="cls-30" d="M324.81,412.92c-1.16,1.12-2.55.7-3.9.6A6.57,6.57,0,0,1,324.81,412.92Z" transform="translate(-197.53 -259.3)"/><path class="cls-1" d="M402.44,518.44c1.16-1.19,2.6-.59,3.94-.62A7,7,0,0,1,402.44,518.44Z" transform="translate(-197.53 -259.3)"/><path class="cls-1" d="M210.55,518.56c1.39.05,2.89-.61,4.09.64A7,7,0,0,1,210.55,518.56Z" transform="translate(-197.53 -259.3)"/><path class="cls-31" d="M367,371.38c-.09.79-.19,1.58-.33,2.77-.65-1.48-.7-2.47.22-3.36A.38.38,0,0,1,367,371.38Z" transform="translate(-197.53 -259.3)"/><path class="cls-32" d="M301,385.05c.44-.86.93-.49,1.38,0s.81,1,0,1.38A1.85,1.85,0,0,1,301,385.05Z" transform="translate(-197.53 -259.3)"/><path class="cls-26" d="M395.78,518.48v.79l-.23.18-.28-.12-2.59-.33C393.72,518.09,394.81,518.65,395.78,518.48Z" transform="translate(-197.53 -259.3)"/><path class="cls-1" d="M283.76,528.9c1.38.08,2.88-.61,4.07.64A7.05,7.05,0,0,1,283.76,528.9Z" transform="translate(-197.53 -259.3)"/><path class="cls-33" d="M288.57,529.59v-.77h3c-.72,1.15-1.72.48-2.44.84l-.28.11Z" transform="translate(-197.53 -259.3)"/><path class="cls-31" d="M250.11,523.62l-3.11.11-.3.1-.27-.17v-.75h3.7C250.13,523.15,250.12,523.38,250.11,523.62Z" transform="translate(-197.53 -259.3)"/><path class="cls-20" d="M304.28,468.46h3.82C306.57,469.4,305.36,468.77,304.28,468.46Z" transform="translate(-197.53 -259.3)"/><path class="cls-34" d="M353.51,524.94l-3.55.16c0-.23,0-.47,0-.71h3.69A1.53,1.53,0,0,1,353.51,524.94Z" transform="translate(-197.53 -259.3)"/><path class="cls-35" d="M294.38,530.38c.92-1,2-1.08,3.43-.29l-3.44.29Z" transform="translate(-197.53 -259.3)"/><path class="cls-36" d="M358.09,409.2c2.85-.45,3.79.64,3.75,3.6-.17,11.75-.06,23.51-.1,35.26,0,1.21.64,2.86-1.44,3.2A7.63,7.63,0,0,0,361,447c0-11-.1-22,.06-33C361.14,411.48,360.49,409.93,358.09,409.2Z" transform="translate(-197.53 -259.3)"/><path class="cls-37" d="M337.25,411.29l3.84.27c-1.35.6-2.69,1-3.85-.27Z" transform="translate(-197.53 -259.3)"/><path class="cls-21" d="M299.72,291.82c-1-.91-1-1.94-.22-3.44.09,1.41.15,2.43.22,3.46Z" transform="translate(-197.53 -259.3)"/><path class="cls-38" d="M321.09,405.48h-31A133,133,0,0,1,321.09,405.48Z" transform="translate(-197.53 -259.3)"/><path class="cls-37" d="M279,404.74l-4.1-.19c1.24-1.11,2.74-.28,4.1-.53Z" transform="translate(-197.53 -259.3)"/><path class="cls-12" d="M336.34,404.57l-3.38.17c0-.24,0-.48,0-.73C334.07,404.23,335.36,403.49,336.34,404.57Z" transform="translate(-197.53 -259.3)"/></svg>