<svg id="Layer_1" data-name="Layer 1" xmlns="http://www.w3.org/2000/svg" viewBox="0 0 257.53 235.42"><defs><style>.cls-1{fill:#ccc;}.cls-2{fill:#fff;}.cls-3{fill:#010101;}.cls-4{fill:#1a1a1a;}</style></defs><title>jail</title><path class="cls-1" d="M205.68,468.38l30-21.79v66.72H267v-72.5a16,16,0,0,0,7.33-4.38c3.76-4.1,3.76-9.05,3.76-11.7a9.91,9.91,0,0,0-.83-4,16.28,16.28,0,0,0,1.93-7.58V413c9.13-1.27,10.42-9.54,11.05-13.61a32.71,32.71,0,0,1,2.33-8.17,34.67,34.67,0,0,0,1.78-5.36V513.31h31.28V387.1a39.67,39.67,0,0,0,1.46,4.11,32.71,32.71,0,0,1,2.33,8.17c.63,4.07,1.92,12.34,11.05,13.61v.21a16.38,16.38,0,0,0,1.92,7.58,10,10,0,0,0-.82,4c0,2.65,0,7.6,3.76,11.7a16,16,0,0,0,7.32,4.38v72.5h31.28V446.59l30,21.79,4.47-6.49c.65-.95,15.93-23.57,15.93-58.15v-4.17l-16.68-10.82a18.08,18.08,0,0,0-2.64-7,21.54,21.54,0,0,0,1.09-6.76c.09-6-3-19.84-32.21-22.92V287.88H352.65v57.55h-.88a23.27,23.27,0,0,0-8.31,1.39c-1.49.57-6,2.31-12.63,15a69.41,69.41,0,0,0-5.2,12.79V287.88H294.35v88a65.78,65.78,0,0,0-5.52-14.06c-6.61-12.71-11.14-14.45-12.63-15a23.31,23.31,0,0,0-8.31-1.39H267V287.88H235.72v64.23c-29.23,3.08-32.3,16.93-32.21,22.92a21.52,21.52,0,0,0,1.1,6.76,18,18,0,0,0-2.64,7l-16.68,10.82v4.17c0,34.58,15.28,57.2,15.93,58.15Z" transform="translate(-176.84 -277.89)"/><path class="cls-2" d="M197.23,458.39l30-21.79v66.72h31.28v-72.5a15.9,15.9,0,0,0,7.32-4.38c3.77-4.1,3.77-9,3.77-11.7a10.1,10.1,0,0,0-.83-3.95,16.28,16.28,0,0,0,1.93-7.58V403c9.13-1.27,10.41-9.53,11-13.61a32.66,32.66,0,0,1,2.34-8.17,33.67,33.67,0,0,0,1.77-5.36V503.32h31.29V377.11a37.47,37.47,0,0,0,1.46,4.11,32.71,32.71,0,0,1,2.33,8.17c.63,4.08,1.92,12.34,11,13.61v.21a16.38,16.38,0,0,0,1.92,7.58,10,10,0,0,0-.82,3.95c0,2.66,0,7.6,3.76,11.7a16,16,0,0,0,7.32,4.38v72.5h31.28V436.6l30,21.79L410,451.9c.65-.95,15.93-23.57,15.93-58.15v-4.17l-16.68-10.82a18.24,18.24,0,0,0-2.64-7,21.54,21.54,0,0,0,1.09-6.76c.09-6-3-19.84-32.21-22.92V277.89H344.2v57.56l-.89,0a23.35,23.35,0,0,0-8.31,1.39c-1.48.57-6,2.31-12.62,15a68.71,68.71,0,0,0-5.2,12.79V277.89H285.89v88a65.47,65.47,0,0,0-5.52-14.06c-6.61-12.71-11.13-14.45-12.62-15a23.31,23.31,0,0,0-8.31-1.39l-.89,0V277.89H227.27v64.23C198,345.2,195,359.05,195.06,365a21.83,21.83,0,0,0,1.09,6.76,18.07,18.07,0,0,0-2.63,7l-16.68,10.82v4.17c0,34.58,15.28,57.2,15.93,58.15Z" transform="translate(-176.84 -277.89)"/><path class="cls-3" d="M351.89,352.87a121.63,121.63,0,0,1,15.91-1.56V285.58H351.89Z" transform="translate(-176.84 -277.89)"/><path class="cls-4" d="M349,352.87v-9.14s-6.49-1.55-11.24.27c-4.41,1.69-13.8,19.86-13.8,26.45s3.11,8.07,4.61,17.77c1,6.42,2.31,7.08,5.27,7.24s5.11-1,5.27-2.47-.65-10.05,2.64-16.14c0,0-6.75-19.61,7.25-23.4" transform="translate(-176.84 -277.89)"/><path class="cls-4" d="M371.29,349.46c-.35,0,0,4.42,0,4.42s3.87.44,5.19,2.21H357.59c-5.08,0-15.57.22-15.57,8.06s3.53,11.16,13.47,11.16h26.62s-.33,2.65-13.25,2.65H351.52c-2.43,0-8.51-.78-9.5,7.62s1.62,9.06,9.87,9.06h28.24s.11,2.76-8.07,3.09-21.2-1.77-25.95-1.33-6.52,2-6.41,6.63,2.32,7,8.61,7.29,27.07.78,27.07.78-3.1,2.2-12.26,2.2-22.32-3.09-22.32,1.44.22,9.61,13.26,9.61,26.29,1.21,30.82-4.09a10.26,10.26,0,0,0,2.43-9.28s11-1.54,7.84-16.9c0,0,6.74-3.86,6.74-11.37,0-8.62-5.75-9.83-5.75-9.83s3.76-.56,3.87-8S391.94,350.89,371.29,349.46Z" transform="translate(-176.84 -277.89)"/><path class="cls-4" d="M404.72,385s-1.09,6.93-6.57,11.1c0,0,4,13.24-7.86,18,0,0,.66,14.14-14.8,13l28.16,20.44s14.58-21.21,14.58-53.8Z" transform="translate(-176.84 -277.89)"/><rect class="cls-3" x="175.05" y="150.93" width="15.91" height="66.82"/><path class="cls-3" d="M250.87,352.87A121.63,121.63,0,0,0,235,351.31V285.58h15.91Z" transform="translate(-176.84 -277.89)"/><path class="cls-4" d="M253.76,352.87v-9.14s6.49-1.55,11.24.27c4.41,1.69,13.8,19.86,13.8,26.45s-3.1,8.07-4.61,17.77c-1,6.42-2.31,7.08-5.27,7.24s-5.11-1-5.27-2.47.66-10.05-2.64-16.14c0,0,6.76-19.61-7.25-23.4" transform="translate(-176.84 -277.89)"/><path class="cls-4" d="M231.46,349.46c.35,0,0,4.42,0,4.42s-3.86.44-5.19,2.21h18.89c5.08,0,15.58.22,15.58,8.06s-3.54,11.16-13.48,11.16H220.64S221,378,233.9,378h17.34c2.43,0,8.5-.78,9.5,7.62s-1.63,9.06-9.87,9.06H222.63s-.11,2.76,8.06,3.09,21.21-1.77,26-1.33,6.52,2,6.41,6.63-2.32,7-8.62,7.29-27.06.78-27.06.78,3.09,2.2,12.26,2.2S262,410.21,262,414.74s-.22,9.61-13.26,9.61-26.28,1.21-30.81-4.09a10.26,10.26,0,0,1-2.43-9.28s-11-1.54-7.85-16.9c0,0-6.73-3.86-6.73-11.37,0-8.62,5.74-9.83,5.74-9.83s-3.75-.56-3.86-8S210.81,350.89,231.46,349.46Z" transform="translate(-176.84 -277.89)"/><path class="cls-4" d="M198,385s1.1,6.93,6.58,11.1c0,0-4,13.24,7.86,18,0,0-.67,14.14,14.8,13L199.1,447.55s-14.58-21.21-14.58-53.8Z" transform="translate(-176.84 -277.89)"/><rect class="cls-3" x="58.12" y="150.93" width="15.91" height="66.82"/><rect class="cls-3" x="116.74" y="7.68" width="15.91" height="210.07"/></svg>