<svg id="Layer_1" data-name="Layer 1" xmlns="http://www.w3.org/2000/svg" viewBox="0 0 284.29 315.88"><defs><style>.cls-1{fill:#2e3192;}.cls-2{fill:#00a651;}.cls-3{fill:#ec008c;}.cls-4,.cls-6,.cls-7{font-size:23.35px;fill:#f8f7f8;}.cls-10,.cls-12,.cls-4,.cls-6,.cls-7,.cls-8{font-family:FranklinGothic-Heavy, Franklin Gothic Heavy;font-weight:800;}.cls-4{letter-spacing:0.05em;}.cls-5,.cls-7{letter-spacing:0.08em;}.cls-6{letter-spacing:0.08em;}.cls-10,.cls-12,.cls-8{font-size:12.97px;fill:#231f20;}.cls-11,.cls-8{letter-spacing:0.08em;}.cls-9{letter-spacing:0.09em;}.cls-10{letter-spacing:0.06em;}.cls-12{letter-spacing:0.08em;}</style></defs><title>pie_graph</title><text x="-161.04" y="-239.17"/><path class="cls-1" d="M289.89,240.44V380.59L260.8,490.84s-100.34-23-98.37-131.29S285,233.67,289.89,240.44Z" transform="translate(-161.04 -239.17)"/><path class="cls-2" d="M289.89,240.44V380.59l62.24,98.63s70.63-34.44,64.06-128.78S293.87,234.48,289.89,240.44Z" transform="translate(-161.04 -239.17)"/><path class="cls-3" d="M260.8,490.84l29.09-110.25,62.24,98.63S306,506.51,260.8,490.84Z" transform="translate(-161.04 -239.17)"/><text class="cls-4" transform="translate(54.55 114.47)">4<tspan class="cls-5" x="14.79" y="0">7%</tspan></text><text class="cls-6" transform="translate(161.02 114.47)">45%</text><text class="cls-7" transform="translate(123.25 201.54)">8%</text><text class="cls-8" transform="translate(17.73 282.06)">Ja<tspan class="cls-9" x="15.08" y="0">c</tspan><tspan x="23.06" y="0">kson</tspan></text><text class="cls-10" transform="translate(117.87 280.77)">F<tspan class="cls-11" x="7.85" y="0">olsom</tspan><tspan class="cls-11"><tspan x="0" y="15.57">Prison </tspan><tspan x="0" y="31.13">Blues</tspan></tspan></text><text class="cls-12" transform="translate(206.17 278.92)">25 Minutes<tspan class="cls-11"><tspan x="0" y="15.57" xml:space="preserve">     to Go</tspan></tspan></text><rect class="cls-1" y="271.08" width="10.5" height="10.5"/><rect class="cls-2" x="99.76" y="271.01" width="10.5" height="10.5"/><rect class="cls-3" x="190.88" y="269.48" width="10.5" height="10.5"/></svg>